<mxfile host="app.diagrams.net" agent="Mozilla/5.0 (Macintosh; Intel Mac OS X 10_15_7) AppleWebKit/537.36 (KHTML, like Gecko) Chrome/140.0.0.0 Safari/537.36" version="28.2.3">
  <diagram id="xSI3LXj7DD4S5Jo9F3ba" name="Page-1">
    <mxGraphModel dx="1203" dy="579" grid="1" gridSize="10" guides="1" tooltips="1" connect="1" arrows="1" fold="1" page="1" pageScale="1" pageWidth="1700" pageHeight="1100" math="0" shadow="0">
      <root>
        <mxCell id="0" />
        <mxCell id="1" parent="0" />
        <mxCell id="_v1DKOq9-sfsuuMIZ3_m-82" value="&lt;b&gt;Google &lt;/b&gt;Cloud Platform Project" style="fillColor=#F6F6F6;strokeColor=none;shadow=0;gradientColor=none;fontSize=14;align=left;spacing=10;fontColor=#717171;9E9E9E;verticalAlign=top;spacingTop=-4;fontStyle=0;spacingLeft=40;html=1;whiteSpace=wrap;" vertex="1" parent="1">
          <mxGeometry x="58" y="190" width="842" height="390" as="geometry" />
        </mxCell>
        <mxCell id="_v1DKOq9-sfsuuMIZ3_m-83" value="" style="shape=mxgraph.gcp2.google_cloud_platform;fillColor=#F6F6F6;strokeColor=none;shadow=0;gradientColor=none;" vertex="1" parent="_v1DKOq9-sfsuuMIZ3_m-82">
          <mxGeometry width="23" height="20" relative="1" as="geometry">
            <mxPoint x="20" y="10" as="offset" />
          </mxGeometry>
        </mxCell>
        <mxCell id="_v1DKOq9-sfsuuMIZ3_m-17" value="&lt;font style=&quot;color: rgb(0, 0, 0);&quot;&gt;VPC&lt;/font&gt;" style="sketch=0;points=[[0,0,0],[0.25,0,0],[0.5,0,0],[0.75,0,0],[1,0,0],[1,0.25,0],[1,0.5,0],[1,0.75,0],[1,1,0],[0.75,1,0],[0.5,1,0],[0.25,1,0],[0,1,0],[0,0.75,0],[0,0.5,0],[0,0.25,0]];rounded=1;absoluteArcSize=1;arcSize=2;html=1;strokeColor=none;gradientColor=none;shadow=0;dashed=1;fontSize=12;fontColor=#9E9E9E;align=left;verticalAlign=top;spacing=10;spacingTop=-4;whiteSpace=wrap;fillColor=#F3E5F5;" vertex="1" parent="1">
          <mxGeometry x="90" y="220" width="780" height="340" as="geometry" />
        </mxCell>
        <mxCell id="_v1DKOq9-sfsuuMIZ3_m-26" value="" style="shape=link;html=1;rounded=0;exitX=0.154;exitY=0.441;exitDx=0;exitDy=0;exitPerimeter=0;" edge="1" parent="1" source="_v1DKOq9-sfsuuMIZ3_m-17">
          <mxGeometry width="100" relative="1" as="geometry">
            <mxPoint x="309.96000000000004" y="368" as="sourcePoint" />
            <mxPoint x="790" y="368" as="targetPoint" />
          </mxGeometry>
        </mxCell>
        <mxCell id="_v1DKOq9-sfsuuMIZ3_m-30" value="Subnet" style="text;html=1;align=center;verticalAlign=middle;whiteSpace=wrap;rounded=0;" vertex="1" parent="1">
          <mxGeometry x="130" y="352" width="60" height="30" as="geometry" />
        </mxCell>
        <mxCell id="_v1DKOq9-sfsuuMIZ3_m-31" value="" style="fillColor=#ffffff;strokeColor=#dddddd;shadow=1;strokeWidth=1;rounded=1;absoluteArcSize=1;arcSize=2;" vertex="1" parent="1">
          <mxGeometry x="255" y="408" width="130" height="60" as="geometry" />
        </mxCell>
        <mxCell id="_v1DKOq9-sfsuuMIZ3_m-32" value="Compute&#xa;Engine" style="editableCssRules=.*;html=1;fontColor=#999999;shape=image;verticalLabelPosition=middle;verticalAlign=middle;labelPosition=right;align=left;spacingLeft=20;part=1;points=[];imageAspect=0;image=data:image/svg+xml,PHN2ZyB4bWxucz0iaHR0cDovL3d3dy53My5vcmcvMjAwMC9zdmciIHhtbG5zOnY9Imh0dHBzOi8vdmVjdGEuaW8vbmFubyIgd2lkdGg9IjIwIiBoZWlnaHQ9IjIwIiB2aWV3Qm94PSIwIDAgMjAgMjAiPiYjeGE7CTxzdHlsZSB0eXBlPSJ0ZXh0L2NzcyI+JiN4YTsJLnN0MHtmaWxsOiM0Mjg1ZjQ7fSYjeGE7CS5zdDF7ZmlsbDojNjY5ZGY2O30mI3hhOwkuc3Qye2ZpbGw6I2FlY2JmYTt9JiN4YTsJPC9zdHlsZT4mI3hhOwk8cGF0aCBjbGFzcz0ic3QyIiBkPSJNNyA3aDZ2Nkg3eiIvPiYjeGE7CTxwYXRoIGNsYXNzPSJzdDEiIGQ9Ik05IDBoMnY0SDl6TTUgMGgydjRINXptOCAwaDJ2NGgtMnoiLz4mI3hhOwk8cGF0aCBjbGFzcz0ic3QwIiBkPSJNOSAxNmgydjRIOXptLTQgMGgydjRINXptOCAwaDJ2NGgtMnptMy01VjloNHYyem0wIDR2LTJoNHYyem0wLThWNWg0djJ6Ii8+JiN4YTsJPHBhdGggY2xhc3M9InN0MSIgZD0iTTAgMTFWOWg0djJ6bTAgNHYtMmg0djJ6bTAtOFY1aDR2MnoiLz4mI3hhOwk8cGF0aCBjbGFzcz0ic3QyIiBkPSJNMyAzdjE0aDE0VjN6bTEyIDEySDVWNWgxMHoiLz4mI3hhOwk8cGF0aCBjbGFzcz0ic3QxIiBkPSJNMTAgMTBsLTMgM2g2eiIvPiYjeGE7CTxwYXRoIGNsYXNzPSJzdDAiIGQ9Ik0xMyA3bC0zIDMgMyAzeiIvPiYjeGE7PC9zdmc+;" vertex="1" parent="_v1DKOq9-sfsuuMIZ3_m-31">
          <mxGeometry width="30" height="30" relative="1" as="geometry">
            <mxPoint x="15" y="15" as="offset" />
          </mxGeometry>
        </mxCell>
        <mxCell id="_v1DKOq9-sfsuuMIZ3_m-34" value="Optional&lt;br&gt;Bastion Host" style="text;html=1;align=center;verticalAlign=middle;whiteSpace=wrap;rounded=0;" vertex="1" parent="1">
          <mxGeometry x="255" y="478" width="130" height="30" as="geometry" />
        </mxCell>
        <mxCell id="_v1DKOq9-sfsuuMIZ3_m-35" value="" style="fillColor=#ffffff;strokeColor=#dddddd;shadow=1;strokeWidth=1;rounded=1;absoluteArcSize=1;arcSize=2;" vertex="1" parent="1">
          <mxGeometry x="579" y="408" width="140" height="60" as="geometry" />
        </mxCell>
        <mxCell id="_v1DKOq9-sfsuuMIZ3_m-36" value="Kubernetes&#xa;Engine" style="editableCssRules=.*;html=1;fontColor=#999999;shape=image;verticalLabelPosition=middle;verticalAlign=middle;labelPosition=right;align=left;spacingLeft=20;part=1;points=[];imageAspect=0;image=data:image/svg+xml,PHN2ZyB4bWxucz0iaHR0cDovL3d3dy53My5vcmcvMjAwMC9zdmciIHhtbG5zOnY9Imh0dHBzOi8vdmVjdGEuaW8vbmFubyIgd2lkdGg9IjMyOS45MjU5OTcyMzE3OTM4IiBoZWlnaHQ9IjM3OC4yODQ5OTAzMTEyNzg4IiB2aWV3Qm94PSIwIDAgODcuMjkyOTk5MjY3NTc4MTIgMTAwLjA4Nzk5NzQzNjUyMzQ0Ij4mI3hhOzxzdHlsZSB0eXBlPSJ0ZXh0L2NzcyI+JiN4YTsJLnN0MHtmaWxsOiNhZWNiZmE7fSYjeGE7CS5zdDF7ZmlsbDojNjY5ZGY2O30mI3hhOwkuc3Qye2ZpbGw6IzQyODVmNDt9JiN4YTs8L3N0eWxlPiYjeGE7CTxwYXRoIGNsYXNzPSJzdDAiIGQ9Ik00My43NTEgMEwwIDI1LjQ2NXYyLjU4OCA0Ni45Mmw0My43NTIgMjUuMTE1IDQzLjU0MS0yNS4xMjFWMjUuNDczem0yLjQzOCAxMS44NTNsMzIuMTAzIDE4Ljc4MlY2OS43N0w0My43MzkgODkuNzA1IDkgNjkuNzYyVjMwLjY0MWwzMi4xOS0xOC43MzZ2MTQuMTU0TDI0LjUwMyAzNi4xNTNsMTkuMTcyIDExLjUwMiAxOC44ODYtMTEuNTU0LTE2LjM3Mi0xMC4wMjR6Ii8+JiN4YTsJPHBhdGggY2xhc3M9InN0MSIgZD0iTTIyLjAyNSA0MC40OTZsLjE2NiAxOS4xNDMtMTMuMjQ3IDcuMzN2Mi43NDJsMi42MzcgMS41MTQgMTIuNjQ4LTYuOTk5IDE2Ljk2MSAxMC42MDJWNTEuOTkzeiIvPiYjeGE7CTxwYXRoIGNsYXNzPSJzdDIiIGQ9Ik02NS4zNDQgNDAuMjZMNDYuMTg5IDUxLjk3OXYyMi44NDdsMTYuODk5LTEwLjU3NiAxMi41MzkgNi45NzQgMi42MDktMS41MDV2LTIuNzY1bC0xMi43ODQtNy4xMTJ6Ii8+JiN4YTs8L3N2Zz4=;" vertex="1" parent="_v1DKOq9-sfsuuMIZ3_m-35">
          <mxGeometry width="26" height="30" relative="1" as="geometry">
            <mxPoint x="17" y="15" as="offset" />
          </mxGeometry>
        </mxCell>
        <mxCell id="_v1DKOq9-sfsuuMIZ3_m-39" value="Varonis Collector" style="text;html=1;align=center;verticalAlign=middle;whiteSpace=wrap;rounded=0;" vertex="1" parent="1">
          <mxGeometry x="580" y="478" width="130" height="30" as="geometry" />
        </mxCell>
        <mxCell id="_v1DKOq9-sfsuuMIZ3_m-40" value="" style="fillColor=#ffffff;strokeColor=#dddddd;shadow=1;strokeWidth=1;rounded=1;absoluteArcSize=1;arcSize=2;" vertex="1" parent="1">
          <mxGeometry x="405" y="260" width="150" height="60" as="geometry" />
        </mxCell>
        <mxCell id="_v1DKOq9-sfsuuMIZ3_m-41" value="Cloud NAT" style="editableCssRules=.*;html=1;fontColor=#999999;shape=image;verticalLabelPosition=middle;verticalAlign=middle;labelPosition=right;align=left;spacingLeft=20;part=1;points=[];imageAspect=0;image=data:image/svg+xml,PHN2ZyB4bWxucz0iaHR0cDovL3d3dy53My5vcmcvMjAwMC9zdmciIHhtbG5zOnY9Imh0dHBzOi8vdmVjdGEuaW8vbmFubyIgd2lkdGg9IjIwIiBoZWlnaHQ9IjIwIiB2aWV3Qm94PSIwIDAgMjAgMjAiPiYjeGE7CTxzdHlsZSB0eXBlPSJ0ZXh0L2NzcyI+JiN4YTsJLnN0MHtmaWxsOiM0Mjg1ZjQ7fSYjeGE7CS5zdDF7ZmlsbDojNjY5ZGY2O30mI3hhOwkuc3Qye2ZpbGw6I2FlY2JmYTt9JiN4YTsJPC9zdHlsZT4mI3hhOwk8cGF0aCBjbGFzcz0ic3QyIiBkPSJNMTQgMGg2djZoLTZ6Ii8+JiN4YTsJPHBhdGggY2xhc3M9InN0MSIgZD0iTTE3IDBoM3Y2aC0zeiIvPiYjeGE7CTxwYXRoIGNsYXNzPSJzdDIiIGQ9Ik0xNCAxNGg2djZoLTZ6Ii8+JiN4YTsJPHBhdGggY2xhc3M9InN0MSIgZD0iTTE3IDE0aDN2NmgtM3oiLz4mI3hhOwk8cGF0aCBjbGFzcz0ic3QyIiBkPSJNMCAwaDZ2NkgweiIvPiYjeGE7CTxwYXRoIGNsYXNzPSJzdDEiIGQ9Ik0zIDBoM3Y2SDN6Ii8+JiN4YTsJPHBhdGggY2xhc3M9InN0MiIgZD0iTTAgMTRoNnY2SDB6Ii8+JiN4YTsJPGcgY2xhc3M9InN0MSI+JiN4YTsJCTxwYXRoIGQ9Ik0zIDE0aDN2Nkgzek02IDJoOHYySDZ6Ii8+JiN4YTsJCTxwYXRoIGQ9Ik02IDE2aDh2Mkg2ek0xNiA2aDJ2OGgtMnpNMiA2aDJ2OEgyeiIvPiYjeGE7CTwvZz4mI3hhOwk8cGF0aCBjbGFzcz0ic3QwIiBkPSJNMiA2aDJ2Mkgyem0xNCAwaDJ2MmgtMnpNNiAyaDJ2Mkg2em0wIDE0aDJ2Mkg2eiIvPiYjeGE7PC9zdmc+;" vertex="1" parent="_v1DKOq9-sfsuuMIZ3_m-40">
          <mxGeometry width="30" height="30" relative="1" as="geometry">
            <mxPoint x="15" y="15" as="offset" />
          </mxGeometry>
        </mxCell>
        <mxCell id="_v1DKOq9-sfsuuMIZ3_m-44" value="" style="shape=image;verticalLabelPosition=bottom;labelBackgroundColor=default;verticalAlign=top;aspect=fixed;imageAspect=0;image=data:image/png,iVBORw0KGgoAAAANSUhEUgAAAgAAAAIACAYAAAD0eNT6AAAAAXNSR0IArs4c6QAAAERlWElmTU0AKgAAAAgAAYdpAAQAAAABAAAAGgAAAAAAA6ABAAMAAAABAAEAAKACAAQAAAABAAACAKADAAQAAAABAAACAAAAAAAL+LWFAABAAElEQVR4Ae29C9RkRXmovWv3ZT6+bwb8hUTjill61jIrLhQvzAwckiMzkBjJWVyGQeKfGHWAUQhEUVHAgdgKw0XBO4rDzUQ9iTAwIPEQk+AMeMOZAQHD8f/j+tV1cJF4ggjMzMfM1927/np7eIc9Re+vu7/u3b0vT82a79276q3abz1VXVX7rd27g4AAAQhAAAIQgAAEIAABCEAAAhCAAAQgAAEIQAACEIAABCAAAQhAAAIQgAAEIAABCEAAAhCAAAQgAAEIQAACEIAABCAAAQhAAAIQgAAEIAABCEAAAhCAAAQgAAEIQAACEIAABCAAAQhAAAIQgAAEIAABCEAAAhCAAAQgAAEIQAACEIAABCAAAQhAAAIQgAAEIAABCEAAAhCAAAQgAAEIQAACEIAABCAAAQhAAAIQgAAEIAABCEAAAhCAAAQgAAEIQAACEIAABCAAAQhAAAIQgAAEIAABCEAAAhCAAAQgAAEIQAACEIAABCAAAQhAAAIQgAAEIAABCEAAAhCAAAQgAAEIQAACEIAABCAAAQhAAAIQgAAEIAABCEAAAhCAAAQgAAEIQAACEIAABCAAAQhAAAIQgAAEIAABCEAAAhCAAAQgAAEIQAACEIAABCAAAQhAAAIQgAAEIAABCEAAAhCAAAQgAAEIQAACEIAABCAAAQhAAAIQgAAEIAABCEAAAhCAAAQgAAEIQAACEIAABCAAAQhAAAIQgAAEIAABCEAAAhCAAAQgAAEIQAACEIAABCAAAQhAAAIQgAAEIAABCEAAAhCAAAQgAAEIQAACEIAABCAAAQhAAAIQgAAEIAABCEAAAhCAAAQgAAEIQAACEIAABCAAAQhAAAIQgAAEIAABCEAAAhCAAAQgAAEIQAACEIAABCAAAQhAAAIQgAAEIAABCEAAAhCAAAQgAAEIQAACEIAABCAAAQhAAAIQgAAEIAABCEAAAhCAAAQgAAEIQAACEIAABCAAAQhAAAIQgAAEIAABCEAAAhCAAAQgAAEIQAACEIAABCAAAQhAAAIQgAAEIAABCEAAAhCAAAQgAAEIQAACEIAABCAAAQhAAAIQgAAEIAABCEAAAhCAAAQgAAEIQAACEIAABCAAAQhAAAIQgAAEIAABCEAAAhCAAAQgAAEIQAACEIAABCAAAQhAAAIQgAAEIAABCEAAAhCAAAQgAAEIQAACEIAABCAAAQhAAAIQgAAEIAABCEAAAhCAAAQgAAEIQAACEIAABCAAAQhAAAIQgAAEIAABCEAAAhCAAAQgAAEIQAACEIAABCAAAQhAAAIQgAAEIAABCEAAAhCAAAQgAAEIQAACEIAABCAAAQhAAAIQgAAEIAABCEAAAhCAAAQgAAEIQAACEIAABCAAAQhAAAIQgAAEIAABCEAAAhCAAAQgAAEIQAACEIAABCAAAQhAAAIQgAAEIAABCEAAAhCAAAQgAAEIQAACEIAABCAAAQhAAAIQgAAEIAABCEAAAhCAAAQgAAEIQAACEIAABCAAAQhAAAIQgAAEIAABCEAAAhCAAAQgAAEIQAACEIAABCAAAQhAAAIQgAAEIAABCEAAAhCAAAQgAAEIQAACEIAABCAAAQhAAAIQgAAEIAABCEAAAhCAAAQgAAEIQAACEIAABCAAAQhAAAIQgAAEIAABCEAAAhCAAAQgAAEIQAACEIAABCAAAQhAAAIQgAAEIAABCEAAAhCAAAQgAAEIQAACEIAABCAAAQhAAAIQgAAEIAABCEAAAhCAAAQgAAEIQAACEIAABCAAAQhAAAIQgAAEIAABCEAAAhCAAAQgAAEIQAACEIAABCAAAQhAAAIQgAAEIAABCEAAAhCAAAQgAAEIQAACEIAABCAAAQhAAAIQgAAEIAABCEAAAhCAAAQgAAEIQAACEIAABCAAAQhAAAIQgAAEIAABCEAAAhCAAAQgAAEIQAACEIAABCAAAQhAAAIQgAAEIAABCEAAAhCAAAQgAAEIQAACEIAABCAAAQhAAAIQgAAEIAABCEAAAhCAAAQgAAEIQAACEIAABCAAAQhAAAIQgAAEskXAZMscrBkXgU3b5t4ZBfaL47pe1q5jXN1PXjZ1Ztbswp7xEjhm/a5bgiA6ZbxXzc7VrAlWb/7QktuyYxGWjJNAOM6Lca1sELjjgV0vcZP/lWJN6P6VTYaBedRUF13QqTh/Sk0garbPcp+Cx8sKwdjwi0c1dvxmWetf9nqzAChhD2i3619w1X6BVD1y/8om26FZu+p15slOxflTagJbGgc+boPo7PJCiA6ZqlWuLm/9y11zFgAla/9bt869ww14J0i1y3j3b0zlulMOr32zZM1OdechsHndkpvdp2HjPCoFT2q/9djLdp1U8EpSvS4EWAB0gVLUKHH9h8buW+2X7e7ftetjplL5YFHbl3otnMDupngByrsVEEXRF/648dQLF06QnHkkwAIgj622QJtb7fpnnMN/34e8bB6AwERn4/pfYOcpeLbvNZb8HxvY9xS8monVMyZ48Vy1clWiAgmFJMC3AArZrM+v1G3b9rzFBOHfyV2/TPx69/98zWLGhNb8zarl9XcUs3bUalQE3LcCbnVPxpw8qvLyVk4UmuO2XLj4H/NmN/YujAAegIVxy1WuO7fbQ0xgPqWTvsoSeQAea7Zq78tVo2HsRAg0g+Act0Qu6bcC3PdjIruBrYCJdL2JXJQFwESwj/eiLdv8nPva34vkqjrpy7EuBIouxfV/6lHmCakzAQLzEfj2upl/d++IeL98UsoXosC5hF/arIdXlK/u5axxGXt5qVr69q27j3eT/5/qxK+TvZ4XXVaM+eqqpYtuL1WjU9mhCGxet/hv3Tdlvj5UITnO3LbB6Ssu3/mmHFcB0/skwAKgT1B5VLvtB/Zga8LrxHZ/4tfzIkt3J/d4Jaidm8e2w+bJEmgF4Zl7twLKN0RWxP0RBZ8/rvGrAyfbClw9bQLl691pE81Q+WGl+Wnf9a8TvphZ9Lt/99zDmccvNSXdz81QR8yhKcc2p3/p/OHubZF7X5SVwyoMZXIY2Jfvrk1dOlQhZM48Ab4FkPkmWpiBG7e1/sQE7W/4uWXSjy8C/PSinLvHmb62aln9LUWpD/WYDIGVlz59lzGmlO7wtlv9GGuP3nLRgd+ZDH2umjYBPABpE55A+TdvtwdVguhaubR/lx+f/P20opyL6z+cqpX2O90T6HKFveRUq7rWBuFTha3gPBXrbAWY8G/f+HE7M48aSTkmwAIgx42XZHrFtj/pXP8vlXSd8FXqJN8tTXXyLoPA/NWJrza/TOJDPAT6JXBXY/oXxspWQDmDbAXsae76aDlrX/xaswAoWBvf8kDz2CBor9Fq6YSvUid3PS+adC87+vrJyxb9vdYfCYFhCbyhNb3BWvuPw5aT2/zWnrvi0qf/ILf2Y3giAZ4BSESTv4SbH7GLK7Pth90C4OVJ1suEr4uAJJ28xnee+p9a9Cru/vPagtm1e8Xlz7wsjKIfOZ/a4uxamZ5lNjD/Zpszr9nSMLvTuwolj5sAHoBxE0/xetXZPe5d3vtP/v4dfnzy99Pyfo7rP8XOVfKit1x4wM8DG3ygrBjc4vp3w+quD5e1/kWtNwuAgrTsbVubR7tV+rukOjqRy7FO+CrnS1OdPEpc/9LahDQJyFZAZCpb0rxGpss29rxjrpxdnmkbMW4gAiwABsKVTeWbv2cPcLN+54U/YqFO4HKsE77K+dJUJ2/SVfPJSmXuLKkvAQJpEWg0jHtXrnHP14Q707pGxsut2mZ7w5sbtp5xOzGvTwIsAPoElWW1ar15ubXRK8RGf/LWCV+lpouuxuVdOtf/u098/cxjUicCBNIkIFsB7rO2Ls1rZLlsY8LX/Gd158VZthHb+ifAAqB/VpnUvPW+uSPdyzrOVuP8yVwnfJWaruf5l8Fdq5fVv6z1R0IgbQJHtxZ/zi067037Otks370g2b0h0f1s8uuzaR9WDUKAbwEMQitjuu6p/3p1tvWA++GSQ8U0mcxlglfZzdz50rrpZzzuSffOg8NOWj79aMbtxLyCEXjDJU+9ohqG7hs3wVTBqtZXdawNHjqktXj5LQ0z11cGlDJJAA9AJpulP6Nqs3OX6OQvOfTuXqXE+Xf486X5ulk/D6x5L5O/tDJh3ATuvfign7gHAi4a93Wzcj1jgtf8qj77wazYgx0LI4AHYGHcJp5r47a517mv5mx1hlT1rt6X3YxUnW5peYpzP/Tzzycvq78xTzZja7EINBo23FKbvcf53Ur5khz3WwFzbgI5fMu6Jf9arJYtT23wAOSwrcX1737sRva9q2K+3tX7UtL8u3jV6Zbm62b13A06O0LbOl3qQIDApAjItwKiqHWau34pX45TCYK6+yxeJwuhSbUB1x2OAA03HL+J5K7smrtIXf+9Jmmd8FWqvhiucXmT7u4f1/9Eeh4X9Qk8uxXQ8OPLcu4WAEduqe16b1nqW7R6sgDIWYtuvH/PYe4p3PN1Iu81eaueStWXamtcnqTzfNztfub3hpw1G+YWmMCK5szHbRDcV+Aqzls1G9jL3nDJjlfOq0RiJgmwAMhks3Q3avNmW61E5sbIud50Iu81eaueStWXK2hcXqTzesw6W9/ZnQ6xEJgMAdkKaEfBae7qpd0KqITBjWwFTKb/DXNVFgDD0Btz3ieXtC5wP/N7uFxWJ/Jek7fqqVT9eBmalnVpjDlv9bKpn44ZO5eDQE8C91685MeBCdf3VCyogmwF3FPdeU5Bq1fYarl2I+SBwMbte36vaoMfuidv9/vesUzaMqknSb9uqufHZ/3cfePhnpOXTa3Iup3YV14CKxq2amo7vu+eUVlaRgpubJq1UfRaeS6ijPXPY53xAOSg1cT1b2zwpfjkr3frekefJFVPpepJtTUu69KtUmdr7WBtDpoKE0tMwP1UbiuohGe4z2kpX47jvhUwHVZqG9gKyM+HgAVADtrq10ta5zkzj9CJWkzWiVzjkqTqqVS9eBmallXp7qjOP/7IKe4qpNEImSaw+YLFD1VMeIksr8sYQttecW91lud0ctL45eylOWkcMVNc/4GNLpZjnaDlWCdyjUuSqqdS9fQ869K5/r/70NLa56XOBAjkgcDBc9Mfs0F7ex5sTcPGtomuXnH5My9Lo2zKHC0BFgCj5TnS0hrWhqG117uvGE1LwTpZy3G/E7nqqdQy9DzL8lnX/5qGcT/DSoBATgh03o/vtgKcua2cmDxSM2UrwP1A2Q1sBYwUayqFsQBIBetoCn319ua7bWB+X0vTyVrO+53IVU9ltzI0LWvS1X0drn9tfWSeCMhWQGSDK/Jk8yhtNbZ9zJb67JpRlklZoyfAAmD0TEdS4qbvP/My5/7+qBTmT8wSpxO5n+afq55KTY+XoWkZkz/40TdqnxE7CRDII4HfaC2+RH41Tz7BZQzuweWrV1w5+9tlrHte6lzOnpmD1nGv/NngXP9LxFR/YpY4ncj9NP9c9VRqerwMTcuKdC7E3TUbnC4vWBE7CRDIIwHZCjAmPM19gku5FeC28A4yrfY1eWy7stjMAiCDLb1p+9xZ7vWafySmJU3KOpEnpWu86qnUeClb4zInTXjxCcsXPSI2EiCQZwLfWjfzgPvZ6qvyXIeF2+5+MDkIT1i5fuefLbwMcqZJgAVAmnQXULa4/q21V2rWpMlZJ/KkdI1XPZVJ8Zo+aenq/YOH/6H6Ca0/EgJ5J3Bwa+bD1oQlXdC6d5cG5tP/bf2u38p7OxbRfhYAWWvVavh5df0nTcZicr8Tueqp1DL1PEsS13/WOiP2jIJAZyugYk5zLwgq5ZaWe1fpIdUgunYULCljtARYAIyW51Clbdo2d7obIY7rNUnLRXrp6MSueio1Pl6Gpk1aRib8CK7/oboQmTNK4FvnT2+thubqjJqXulnueQC3FbDj1NQvxAUGIsACYCBc6Snf8cCulzhnWWevUCfppAlZrOilo3lVT6XGx8vQtElKZ9eDD++olnSvNL1+RcnZIfDCPTMXlXcrIJDnAa45qrHjN7PTIljCAiAjfaDZrsvb7l4g5ugknTQh96OjebUslRofL0PTJieDuXYYvb2x0r1LnQCBghKQrQBbMfJbAaXcCnDVPmSqVimtFySL3ZoFQAZa5dZtc39hguhENUUn6aQJWfR66Whe1VOp8fEyNG1S0v2M6iWnHL7oYa0/EgJFJbDl/On7AmM+VdT69a6XfevKy3ac3FsPjXEQYAEwDsrzXOOOH9kXhYHtDAg6OatMmpCluF46mlf1VCbFa/oE5IMP7aiW9o1p83QNkgpKYFFt5q/dk/H/VtDq9aiWc35EwTV/3HjqhT0USR4DARYAY4A83yVau1vXuI9E58Ogk7PKpMlYyuulo3lVT2VSvKaPWbbagT0N1/98PYS0ohH4pw+YXbYavr2sWwHGBC+eq1Z43icDHZsFwAQb4bZte97ipvLVaoJOziqTJmPR76WjeVVPpcbHy9C0cUtjnet/Wf2HWn8kBMpCQLYC3OettG/JM8auOfqKXceXpb2zWk8WABNqmTu320NsEH5SLq8Tr07OKjXel5Knl47mUT2VGh8vQ9PGKd0TwQ+3ZnD9SzsQykmgVp++sLxbAW7ca0Ub2AqYbN9nATAh/i3b/Jybxl8sl9eJVydnlRrvS8nTS0fzqJ5KjY+XoWnjku7arSiyp596qJkTOwgQKCMB2Qpwz/+cWca6S51lK6BZD3n+Z4IdgAXABODfvnX38e47/38ql9ZJV451clapab6M6/pp/rmWpVLT42Vo2rikezfo5accUd8uNhAgUGYCd69bstl5AuUrwOUMNli74vKdbypn5SdfaxYAY26DTT+0L3AvA9m396eTrpihk7NKTfNlXNdP88+1LJWarufjls71/+Ond9UvGzN2LgeBzBJwWwEfdJ/+n2bWwLQNi4LPH9f41YFpX4byn0+ABcDzmaQb02x+yt39v1Qu4k++Ojmr9NP1XPL20lFd1VOZFK/pKUtx/b9tzUqzW+pAgAAEgkC2Atx7QM4oKwu3DfLy3bWpS8ta/0nWmwXAGOlv3Nb6k8jYt+sl/clWJ2eVfrqeS/5eOqqreio1Pl6GpqUt3btAP47rX1sfCYHnCMhWgPt8XPdcTLmO3Lh09rHrd6wsV60nX1sWAGNqg6/cZw+sPPuLWEkTrU7OKpP0xOReOppX9VRqfLwMTUtTdlz/O+ofHRNuLgOB3BFYNDd3nvsl0EdzZ/gIDHa/BBq2A3PDGz9uZ0ZQHEX0SYAFQJ+ghlWbrravUtd/0kSrk7PKJD2xpZeO5lU9lRofL0PT0pNB5Aa2tbj+h+1F5C8ygbsaBz/tBuR9HsIi17Vb3WQrYE9zFzcJ3eCkFOd+pZGQNoFbHmgeG7ajf5HryCQrk7Avu9ng6+h5XFfjkmRcV45Vz49P8zy05upVy+vnpXkNyoZAUQisvHTnjfKinKLUZ5B6yNsRjbVHb7nowO8Mkg/dhRHAA7Awbn3nuvkRu7gSBV/QDHoH7ktJl8k5Ln0dPe9HR3WTyvTj0zo3JvxJs1W7uFMx/kAAAj0JTLX2nFvmrQA3ZtywomGneoJCYWgCLACGRjh/AfXZ5hXWRq8QrV6TrE7aKpP0paxeOppX9VQmxWv6KKXrXJG1wZpTjzLPiM0ECECgNwHZCrCheWdvzWJqmMD+bljd9eFi1i5btWIBkGJ73LK1eZQN7Fl6iV6Tq07OKpP0pbxeOppX9VRqfLwMTRu1tMZ8dvWy2ne1/kgIQKA/Aiv2zPyTteam/rQLqGXsecdcObu8gDXLVJV4BiCl5rj5e/aAar31UPzuXyZfmWS7yW5m9KObpKPxfrlJ8b7e8OeVn7WnK4e51/3uHL4sSoBA+QjIy3F2V+v/r7wyt3y1DwL3wrRHDpmbfv0tDV4Znlb74wFIiWyt2rxEJ3+5hN55J0nRkck5LvvRTdLR+KQy49fxdYY/7zzIs4bJv9Oc/IHAggjIVkBUDcu7FWCjQ/+zupPnhxbUe/rLhAegP04Dad2+fe4Ia+13oiCoymQqk3Ev2e0CSXniukk6Gh/XleOkeF9vmHNjzKdPXlo/d5gyyAsBCOwlcMz62S8HQfutJeXRcqPWEd9aN/NASeufarXxAIwYr3vqvx5Zc4NM/lK03on3kqIrk3NcJuXpR0fzJpXpx4/qPAgqP2sdULuoUxH+QAACQxOoNZvvcQ/T/sfQBeWzgKrzpN745oat59P8bFvNAmDE7VObnbvEBtGhUuygk6pO2iqT8kvZvXQ0r+qpTIrX9KFlxa7F9S8tRIDAaAh8s3HQE6XeCjDBa35Vn3U/mEQYNQG2AEZIdOO2uddVAnufu/tf0GpVJmeZgFXOZ1o/OpJf9VTGy9S4UclKYK45aVn9nPg1OIYABEZDYOX6nV9zX5E7dTSl5asU94KgOTdZHb5l3ZJ/zZfl2bYWD8CI2kdc/2FgvqSTv0yqEvqVouvffSfljesm6Wh8UpnxMnydhZ1XfrazXfuQlEuAAARGT8A2o7P3bgWUb9h2vxVQdwuA6xoNW77Kj74r7SsRmPtQDHdQ2TV3kXP9H6alDDqJSj6dtFUmlRHXTdLReC1LpcbHy9C0hUopy4b2rLceaZ6WYwIEIDB6AlsaBz7ufjHwPXKrUMbgflDsyC21Xe8tY93TqjNbACMgu/H+PYe51/1uk7t/mURlkh1UdjMjqYy4bpKOxsd15Tgp3tcb5NyYynUnL62W9utKg7BCFwLDEjhm/a5b3CLglGHLyWN+2QqwUfDaey9e8uM82p81m/EADNkimzfbaiUyN6rrX++wB5VihkzOcZlURj86mjepTD9+iPPHTKXCAzqdluMPBNInsNttBbjR4vH0r5S9K8hWQCUMbmQrYDRtwwJgSI5PLW590P3M7+FSzBCTaMcKnbRVJpUnyr10NK/qqUyK1/RBpfsN77WrXmee7FSAPxCAQOoEvtdY8n/cK8bdVkA5g3NbH3lPdScPG4+g+dkCGALixu17fq9qgx86t9RIfrlKJmeZgFXOZ1o/OpJf9VTGy9S4hUr3nf+bVi+rnhYvk2MIQGA8BNxWwK3uVuDk8VwtW1dxY+6sjSK3FXDQT7JlWb6swQOwwPZqWBuG1l6vk79MohIWKiWvf/edVFZcN0lH45PKjJfh6/Rz7sp/LKxW3iflECAAgfETaAbBOe52oaxbAdNhpbaBrYDh+h0LgAXyO+z+1vtsYH5fs/czaYpukp6k6aStsh/dJB2N17JUJsVrer8yMNHZuP6l1QgQmAyBb6+b+Xf3XoD3T+bqk79qaNsr7q3O8vDxEE3BFsAC4N153+5XNCvmQRsE0zJhyqQ6rOxmRlKZcd0kHY2P68pxUryvN995aM3frFpef8d8OqRBAALjIbBy/Y473EB+wniulq2ryFaACauHbrnwgJ9ny7J8WIMHYMB2Etd/sxJcJ5O/ZNU76mGllCWTc1wmldmPjuZNKtOP7//c/LLZquH677QUfyAweQKtIDyzzFsBxtob2ApYWD9kATAgt8Pub57jXP9H9z9h7j+pJ+UTM3TSVtmPbpKOxmtZKpPiNb2XdK/8OfvUo8wTA2JDHQIQSImAbAW4FwRdkFLxmS/W2PYxW+qzazJvaAYNZAtggEbZ9P1nXmar4cPu7n/JANn6VpXJWSZglfNl7EdH8queyniZGtevrBjz1ZOW1sv6s6RxdBxDIHMEVl769F3up7jflDnDxmCQDcKnpprmVXc1pn8xhssV5hJ4AAZoSvfKnw06+cukKWFUUsry776Tyo7rJulofFKZ8TJ8nW7n7mGjx82iWmkfOBJeBAhkmcBUq7pWJsIs25iWbSaIDtpdbV2XVvlFLZcFQJ8tu2n73Fnu5Rt/pOrdJklJW2i85NVJW2VSWXHdJB2N17JUJsVrepI0gTnzxFebX8q1CRCAQPYIyN2vsSXeCnDeD/eLiX+WvZbJrkUsAPpomzse2PWSyNrLRDVpghw2XsrWyVllUplx3SQdjdeyVCbFa3o36X7l8Gurli1yLx0hQAACWSbwhtb0BmvtP2bZxjRte8tR9TUyXqd5jSKVzQKgj9aM2tXrndoLRLXbBDmKeClDJ2eVSdeK6ybpaLyWpTIpXtN9Ka7/cKpW2teOCmsCBPJCoNEwUaVVe5cbTXbmxeZR2fnKl1S3HrLY/mG7Xf/CqMosejksAHq08KZtc6e7H/o5TtT8yXHU5zo5q0wqX2zppaN5VU9lUrym+zIIzF/h+hfiBAjkg8C/NA7434ENPpAPa0djZb0ePn3Mq6q/I6W5n2U/4bZte94ympKLXQoLgHnat+P6D+xVquJPjqM+18lZZVL5Yk8vHc2reio1Pl6GpvnS/f72109etujvtf5ICEAgHwQ6WwGm8q18WDu8lW9eVv1Xd1v04udKsp+940f2Rc+dc9SNAAuAblSejWu26593hx3Xvz85jvpcLqmTs8qka8R1k3Q0XstSqfHxMjQtLsX1X5mq8ppNAUWAQM4IyFaANeb0MmwFiOv/BTPBUdJEOr65d7UcYvc0r85Zs43dXN4DkID81m1zf+GcSX+bkJxKtHRemYRVzneRfnQkv+qp1DL1PEk61//bVi+rf1n1iyg/+He7lr70hdVNRawbdeqPwKNPtFZ97P+e2d6fdv60Vl66493GBJ/On+X9WSyu/7Ur6rP73/0/lzc0wapVSxfd/lwMR3EC1fgJx3sJ3LndHtK0ez7hVpHPm0CTJsxh4+XK8TtwOU8qM66bpKPxSWX68fHzva7/WqEnf2H4WwdVbnrJC4PflmNCOQm02pWbXM1fXdTaH91a/Ll7a7tWu5uZNxSxjs+6/vfd/cs4pmNfp742vObm79l7eXtp99ZnC6ALlznbulZcSJIUnxjTPJeypePGZdK1+9HRvEllxsvwdJ4MbfOcjiEF/rPuq7PLf/tg8yqtosfgeW1B+v59syg8pA+su2W2M4FoXyiSlK2AKKy83Y0uhftWQNz1L22mY57KZ+NeUqm19z3HVaS2HUVdWAB4FDdt2+NWy5H7//wJOe1BTzuuyqTriW29dDSv6qnU+HgZmtaR1rz3pOXTj0p6kcMh/1d4Qxjr/fsxcBXn3H33pQQcpA8cMhN+sVPZgv6RX8qLAtsoUvXiT/3rmJYkg6C9ZuO21p8Uqf6jqktsCBxVkfkt57Yf2IOdA+lz2pHGPQnodVUmXV8I99LRvKqnUuPjZWia6wx3rV5e/5KkFTlw97/3Y/9cu5f7vOheAPksr2jOfNKNbd8pyuc6/tS/jmlJUupcCex1m35oOw90F4XBKOrBAiBGMaw03cMy0Yu1I417gNTrqky6vpjcS0fzqp5KjY+X8Wzak+5XtdwLRIofuPsvx9299vlesgxegM5WQNQ6zX26d+f9Ex53/et41ku6PvAS29pzRd7rPmr7WQA8S/T2rbuPb1v753KqnanXwDHqdL2uyqTyB7FRy1KpZer5c9KcVwbXP3f/5b7bf66/78+hDF6Aey8+6CdRYC56dsjLpYi7/qUCOp71kqLrnut618b7m38sx4S9BFgAOA43b7cHWRNeo51CO1PSYJFWvF5XZdJ1xM5eOppX9VR2i3fv+r971bL6DVr/Ikvu/rn7j39+9n0u3EhY9GcBpN553wqIu/51LOtXSv1NZL5w8yN2sRwT5GaXEFRs2+2P2ZcqCu1QOjiMS+p1VSZdV+zspaN5VU+lH+9eBLHD2NYarXuRJXf/+9/1ap9A7uVSBi/A3q2ASF7wlbutgLjrX8YpHcv6lZInDOzLq880L5VjAguA4JYHmsfKU6LSGXQg1A6l5+OSel2VSdcVW3vpaF7VU+nHu5/5LYXrX5hx98/df/yzo58JlWV4FkDqf+/FS37stgIacpyXEHf96xg2qJS6Slsba//qtq3No/NS9zTtLLUH4Cv32QOrbSsvAumEfQPBs44RPR+X9Dt00nXFWNVN0tF41VMZj3/W9b9hb+2L/Ze7f+7+458b/Tz4sgxegM4nvTlztQ3s9rx86uOufx3DBpXa1m4ZLIfXuRcEHZCX+qdlZ6kXANOVPR9T1792DgGtHUvjxiX1uiqTrjuIjVqWSi3T/WLWrIsrzbv+ufvn7j/+udHPgy/L4gXY0jCtdmTe5phkfisg7vrX8WtQGW97ObY2ekWt2rxEjsscSrsAENe/PBWqHUkHAukMfpympS31uiqTrjeIjVqWSi3TGHPe6mVTPy1D5+fun7v/+GdGPwtJsixeANkKCEy4PstjQNz1L3bq+DWo7Nb+bi/gvbdsbRb2LZD9tGspFwDi+qlEwRfiHUoHg25xmpa29Dt10vUGsbFbme6X/u5ZtbTeqX8/nSTvOtz9c/cf/8z4nwn/vCxegA6TuekrsrwVEHf9J42H/cb77ew+FWHFBNfftNlO5X2MW6j9pVwAVOvNy8UFJNC082jn6BanaWlLtUVl0vUGsVHLUimu/1o7WCtllCFw98/dv/Rz7f/9yrJ4AWQrIKiEZ7SDYC5r40Hc9S+2JY2H/cZLGX77u29BvfLAmbkPSVoZQ+kWALfeN3ekPAWqja2dRzuGxPtxmpa21OuqTLreIDZqWSoDYy48/sipn2j9iy65++fuP/550c9BL1kmL8DmCxY/ZGzwsSyNBXHXf9I4OGh8Yj8wwYUbfzC3NEv1H5ctpVoAuBdA1E3F3CiuHwWsnUgHBIn34zQtbanXVZl0vUFs1LJEOtf/dx/+h9rntO5Flx/atPO1cien9YyziDMkHi9Bt/4gfeeDf7erHBNDa/FHsrQVEHf9J42Dg8Ynfc5d21fD0Nwg84OOFWWR+ybCMlS4tqt5mXOBv1Lqqp1BO5GeS5ofp2lpS72uyqTrDWKjlvWs63+NvAhE8pch/Mai6pflTk6DskDiFZA+0asfSN/5rYMq+74mrP2oiFK3AlzdWpOuX9z1nzQGDhovdUpqb0lz4+Nh1V2tC+S4TCE2PBa72rdvnzvCPfX5Hq2ldgbtSHou6X6cpqUt9boqk643iI2q677xsK5Mrn/u/vd+tLUvIRfGo0xeANkKiGww0R/Mibv+ZexKGgMHjddxcD5pTLRu4/17DhOdsoRSLADEtRNZc4O776lKw+pgKMfakeaL07S0pdqiMul63ezuofuDH32j9hnJV5bA3T93+dLX9bO0UFkmL4Dw+o3W4kvc76I8IseTCHHXf9KYttD43n0gqFei8G8am21nnphE/cd9zVIsACrPzDWci+dQhasdQc61M80Xp2lpS7VFZdL1utmdpFtxL/qo2eD0Mrn+uftf2N2u9jvk/vzK5AW4pWHm3AOBb3NjzNi3AuKufxnjksa0hcbHx82kPu7Kfu1hS1rniW4ZQuEXABu3zb0utMH7pTH9Rpc47Uya1i1O09KWaovKpOsNYmNkwotPWL5oYit6sXXcgbt/7v6lz+nnaFhZNi/At9bNPBBYc9U4P7dx13/SuDdsfD99QnRCG33461v37LthHCeHcV+r0AuAzc6V4+6Ar3PDYefpTn8g6DS2WxZI0LRucZqWtvQ7eNL1BrDxBw//Q/UTol+WwN3//nevfp/ifGF8yuQFkLHi4NbMh8e5FRB3/SeNe8PG99v33TsRppomuKHRsIWeH6WdC13BX8+0PuTe9X/43op2/+Brp9LOIbp+nKalLfW6KpOu14+NZXT9Cxfu/rn7j38+9LM0rCybF6CzFVAxp7nJcG+HEqgphbjrP2nMGzZeTO+3DzxbzSNe/d+b706pypkptrALAHmaU57qVNJJja8dS9NF34/TtLSlXldl0vX6stGEHymb65+7/+6LXO1PyOH4lM0L8K3zp7e6F4d9SsfQNGTc9S/lJ415w8ZL2YP2f/felPV33re788ZYyV/EUMgFgLj+3bfdN6jrP6nhpUG1Y6lOtzhNS1uqLSqTrtfLRpfvwYd3VMe6hyc2TTpw98/dv/RB/fyMWpbNCyAsf3Nu5sI0twLirv+k8W5U8YP2BxsE081KcJ1wKGoo5ALg13uf4jxCO05Sw0uj+jrd4pLyjzpebVGZVP58Nrrhb64dRm9vrHTv+C5R4O5/uLtb7XPI+TmWzQsgWwG2YuS3Aka+FRB3/ctQlTTejSperjFo/3bvTzl60/a5syRvEUPhFgAbt+/5PXmKUxpLO05So3fT6RaXlH/U8WqvyqTy57PR/bznJaccvuhh0SlT4O6fu3/p7/rZSUuW0Quw5fzp+9xYdM0ox5O46z9pnBt1/EL6h+Sx1l5167bd/2WU9c9KWYVaADSsDUNrr5enOAWwdqCkwaCbTre4pPyjjld7VSaVn2Sjy/fgQzuqE32Tl9g27sDd//x3rdqfkKPhVDYvgHyea/XpC93d8L+N6rMdd/0njXOjjl9o/5etAJd3w6jqnqVyCrUAOOz+1vtcJ/19BawdKKnhRc/X6RaXlH/U8WqLyqTyu9no4lrtyK4tm+tfWHD3z91//DOhn5+0ZBm9AP/0AbPLVsO3j2IrIO76TxrjRh0/TP/Ym9ceu2nb3OlyXKRQmAXApu8/87LARh+JN452oqSBQHR9nW5xSflHHa+2qEwqv5uN7tcsLj/liPp2SStT4O5/NHe12ueQ/fEsoxfg2a2Aa4cZX+KufyknaYwbdbxca9i+7b5SftXtW2dfKmUVJRRiASCuf/fc/5fEVSMNow2tnUjPfSm6vk63OD9fWudqi8qk6/g2miB8pD1Tv1Tiyxa4++fuX/q8fmbGJcvoBRDObivgg26E/akcLyTEXf9J41ta8cP2DVffF1hT+eJC6p3VPIVYALxme/Mv5WlN7Tja0P65xquURvF1usWpftpSbVGZdD3PxlYU2XeceqiZk/gyBe7++7tb1f6EHC2vMnoBZCvABNEZCxln4q5/yZ80vqUVL9cc9jPgltvH3bpt7i+krCKE3C8AxPVvA3uZNIZ2HG1k/1zjVXbL0y1O9dOWaq/KpOvFbQxM8PEyuv6FAXf/3P3HPwv6uRmXLKsX4O51SzbbIPy8sO83xF3/SeNa2vFi67B9Q8pwC6BP3PEj+yI5znvI/QLAve1/g3P9L5GG0A6kjeyfa7zKbnm6xal+2lLtVZl0PU13rv8fP72j/lGxuWyBu//R3s1qn0IOxrWMXgAZa2QrIArMz/odd+Ku/6RxLe34UfVt520+pL27VYhvBeR6AeCeynynu/v/I+2E2oG0of1zjVcp+XydbnGqn7ZUW1QmXU/SXcNFbRucsWal2a31L5Pk7p+7//hnVT8z45Zl9QLIVkAlsH09FR93/SeNaWnHj7KvSFnu5+VP2LRtz2o5znPI7QLgjgd2vcQ9lXmlwPc7jw4CGq/nvozn1bRucZqWtlR7VSZdT2x04ao3L699b+9huf5y9z/YXar2J2Q63MrqBZCtAOcPn/dVuXHXv4xSSWNa2vFy7VH3f3fzeW3etwJyuwBot+tfcG36AmlYv/NoQ2u8nvsynlfTusVpWtpS7VWZdD1x/Teb9YbYWsbA3T93/9Lv9XMyaVlWL4C0waK5ufPcFuyjctwtxF3/SePZuOJH3U9kK8DuaV7drd55icvlAuDWrXPvEBeMQvY7kDa0xuu5LyW/r9Mtzs+X1rnaorLbdVyDRe4Dt/bUo8wzWv8ySe7+935ktY8gs8GjrF6AuxoHP+1a4O3dxqC461/Su41n44yXa43689K29s83bd9zkpSdx7D305Mjy8XlEhrbWXVpY/ody4/Xc19KtTWvpnWL07S0pdqi0r9ep5ms+eTqZbXvdo5L+Ie7f+7+459R/axMWpbZC9D5VoA1N8WHo7jr3x/HJnWeRr/p1NmG12z6oe14o+MM8nCcuwVAa3frGjcEvjDemH6H0sFA4/Xcl1KGr9Mtzs+X1rnaotK/ThBUftacqTXExjIG7v6zcber/RO5f3uU1QsgY9FUa8+58a2AuOvfH8cmdZ5Wf3X1eUnUan8ij2NyrhYAt23b8xZ3z9558lIbU6D7HUrTNF7PfRnPq2nd4jQtban2qoxfzzVUZKxd4174s1NsLGPg7p+7f+n3+vnImiyzF0C2AqJKeLa0T9z1Hx/DJG1S53LttPqLlB0E7TUbt7X+ZO9xfv7mZgFw53Z7iAnMpxStNqac+51K0zRez30Zz6tp3eI0LW2p9qqMX88a89mTl9fuEfvKGLj73/9uU/sIMltcyuwFuOeCmTvlWwHHvKr6OzpGxccwiZvUuVw77c9KJYiuzdtWQFXA5C1IQ0pHUul3Kj9ez30p9da8mtYtTtPSlmqLSr1eFIW/uPZbe0r3qt94v/z2/zK/vO9/zck7Dzo/9RxP4xgCWSHgfi1vzlQr/5EVe8Ztx7vfuGja2uDF4qvS8SsrUsfVtOS4WY/iernxABy/1Dzuvnd5rlTab0DpYBJUarp/rvEqu+XpFqf6aUu1V6Vcz9UsuuvB5hM2sh9YcenTfyD2lTF8e93Mv7vXj95YxrpT5/wQcJ/d692v5v0iPxaPztLbt+4+Xp6KT3ucXGj5Oq6mJduhWbvqdebJ0RFNv6TcLAAExcnLFv29m+ZvlWNtRDn2O4Smabye+zKeV9O6xWla2lLtVSm2/OIJ+52fP94+TI4DE/7tGz9uZzrHJfzTCgL5xcNSvvmwhM2duyrL3b/7VdLLc2f4CAy+ebs9yJrwGikq7XFyoeXruJqOrNx0yuG1b44A5ViLyNUCQMhUp6pnO6Of0EaUOL9DaJrG67kv43k1rVucpqUt1V6V4vq/88H2UrFJQhjYl+9p7vro3rPy/cULUL42z1ON3ee2tHf/taj5afdm1pdKe6U9Ti60fB1XU5CPhdXK+/LUV9XW3C0ATny1+WVkzfulAtqQfofw4/Xcl1KG5tW0bnGalrZUW0S6hum4/lutaFps2hesPbfMWwF4Afb1BA4yRKDMd//y9Lv7ilLnZUBpj5ELLV+6Snx8HeV5YKKz8+b6149O7hYAYvjq5fUvudfhfl0b1O8Ufrye+1LK0rya1i1O09KW8Wvv5/qXhGdDxZlsTHjDioYt5cNweAG0JyCzRMCNI6W8+//KffZAefpd2yLtMXKh5es4P2pZMearq5Yuul3rnzeZywWAQK5U5s5yovPAhd8ptJE1Xs99KeX4Ot3i/Hxpneu1fde/xMeDCezvVhaVdysAL0C8N3A8aQJlvvufrravUtd/WuPisOVK/9BxfpTSjcOPV4Ja58H0SffBhV4/twuAE18/81gYmPOl4n4H0UbWeD33ZTyvpnWL07S05d5rJ7j+JTEWWpF9f1m3AvACxDoChxMn4MaZUt793/JA81hr22t7jbNpj5u9ylf7Ri3de2nOlG+nTbwDDmFAbhcAUudVy+obXCP8s98BtKE1Xs99KWX4Ot3i/Hxpncu1k1z/khYPna2AsHJtWbcC8ALEewPHkyJQ1rt/cf1X27bz/n9/DE1rfFxouWrfKKW7+fzaqmWLOt9Im1TfG8V1c70AEACm1X6nCYIdcqwdRBvaP9d4ld3ydItT/dSl99S/2DJfMDY6NKzu+vB8OkVNwwtQ1JbNV73cGFPKu//pyp6PqetfWyz18dHdrkkY9Do6D4xKius/nKq9R+udZ5n7BcCq/3rAz50X4EPxjqENrR1Fz33ZLU+3OD9fGueuIbo/9d+rdxl73jFXzi7vpVbEdLwARWzV/NSprHf/Hdd/YN4lLZXGWDjKcqUsnQdGJd1t51/Jt9Gk7LyH3C8ApAEeWlr7vFuV3aOdURvaP9d4lZLX1+kWp/ppyn5d/2KfF6q2bW8s41YAXgCvJ3A6VgJu7Cjd3f/Nj9jFlSj4goJOc0yUawxbvo7vo5Ly7bO9L6RTAvmWhVgANIyJTMu+wwbRrDSHNrZ2Hj33pej6Ot3i/HyjPu/11L/YNF+QrYCgunPdfDpFTcMLUNSWzXa9ynr3X59tXmFt9AppnVGPg6MuT2zU8X1E8snQNs+RcosSCrEAkMaQrQD3qtzOfrg2tnYoPfel5PN1usX5+UZ5vmDXvxgaC6EJLjhm/a7Xx6JKcYgXoBTNnLlKunGjdHf/t21tHt0ObOcnf6VBRjkOplGeju2jkoE17z1p+fSjmeuMQxhUmAWAMHj48Oon3FbAd5WHdtCkDiB6vk63uKT8w8bLtYZw/Uv2eKi6lfmNb27YejyyDMd4AcrQytmpYxnv/m/+nj3A3S1dp60w7NiXdn6xU8f2UUj5tpm8gE7rXxRZqAWAbAVExpzhviLX+cEY7WRJHUAa0dfpFpeUf+j4AZ/679XpjAle86v67Ad76RUtHS9A0Vo02/VxY0bp7v6r9ebl6vqX1hl67HMlpFmOlK1j+7BSvmUW2tbpHYML9qdQCwBpm1OWLvp/XNNfIsfaSZM6QDedbnFJ+YeJH5XrX+zdL9jow2XcCsALsF8v4CQlAmW8+7/1vrkjjd3r+h9mzJMmGVd+uZaO/8NKd/d/XtFc/8JHQuEWAFKpg3ZWP+Ze1HC/drakDrAXwF4EqtMtTtNGKUfo+heT46GUWwF4AeJdgOO0CLgxpVR3/zdttlOmYm509+tVYTrKMTDN8qRsHf+HkW4euVteOCflFTEUcgGwcqV7PVBoT3PddU4aLakDSJp2aNXpFqdpo5LDPvUvNs4XyroVgBdgvl5B2rAEynj3/4KZ5qXu21WvFHajGv/GVY6O7QuV8q0yl/edw/abLOcv5AJAgJ9y+KKHIxtcKcdJHUDStDOqTrc4TRuFdMAX9sIfMWyA0LbRxSvW73jVAFlyr4oXIPdNmOkKuLGiVHf/4voPjN33xrtRjH/SwOMqR8f2hUrn+j9/9bKpn2a6Uw5pXGEXAMKlPVO/1L244WE5TuoE2hk1XXT9OE0bVkrZKbr+pfh9wT0IWTc2+ErZvhWAF2BfF+BghATKdvfvXvhTd67/69X1P+zYN+780vQ6ji9EyrfJ5AVzI+xCmSyq0AuAUw81c+591e9wlXSy+1On2jE1XVrJj9O0oeWIn/rv1aNkK+A/a7ve20uvSOl4AYrUmtmpixsTSnX3X5udu8S5wA/VFhh67EsYf9MqV+zWcXxQ6Z76n621gzXyrTKtf1FloRcA0minLKv/0IlPybHfESROO6CmdYvTtGGkAz0W17/YHw82sB8t21YAXoB4D+B4WAJlu/vfuG3udY5Z53fuhxnzhPuk8su1dWwfVMoL5Y4/cuonUkbRQ+EXANKAzen6xW4r4BG/I0iadlBN6xanacPIcbn+xf546GwFBMF1jYYtRVtL3fECxHsAx8MScGNEae7+xfXvnnz/srv17bxQbJgxT7hPKr+O64NKZ/IPHv6H6ieG7TN5yV+KSUG2AtwP5pzhKutuDp+b9OVYO6h2lG5xmrZQmfZT/2LzfMG5tI7cUrKtALwA8/UI0volULa7/8ozcw11/S90vJt0PmlbHdcHke5maXfNBqc3GsV3/Wv/L8UCQCq7+sj6fdaYa+RYO4Uca2edL07TFiId4Im4/qVu8eC2Ai57wyU7Ol/niccX9RgvQFFbdrz1cuNDae7+xfUf2uD9Sngh453knXQ+HdMHlZEJP3LC8kWPaP3LIEuzAJDGbM3VLjQm7OztaOfQzqrnoufHadqgUsqalOtfrh0PshVQCYMby7QVgBcg3gM4HpRAme7+N2+21UrQeeFPx/U/6FiXFX1pYx2/B5HO/gcf3lG9atA+knf9Ui0ATj3KPON6x9p4J9GOq51F0vw4TRtYjvmp/16dUbYC7qnuLNTPWc5XZ7wA89EhrRcBNw6U5u7/iZm5v3bj22uVycBjnRtYJUw6n9ig43e/0mVpuV85PK3hXiAn+csUSrUAkIY9eXntHrfS7WwFyLl2WO0s3eI0bRCZFde/1CceIhNc/oZLnur8nnc8vqjHU01zudzJFbV+1CsdAtJnKs2w8yKxdK6QnVI33r/nMPdz4ueLRYOMcVnUF5t0TO9XGhte8uy3xSR7qULpFgDSunPTtQuCoPIzOdYOr52lW5ymDSKz4vqX+sSD2wqYDsNqabYC7mpM/8K18fVxBhxDoBcB6TP/0jjgf/fSy3t6x/UfPef6H2SMk7pnTV/H836lvCiuNVO9Iu/tuFD7S7kAcN8K2BlVbNetgHin7rcT+XqTfuq/V2cIg+gP7q3OFvod13EGeAHiNDjuRaBMd/+/nml9yL0s7XBh4o9jeTuXOgy4IGlFkT1dviUmecsYSrkAkIZ+8+trdxtTuU4bXTuOnGvH17hBpAOaiaf+tV5Jsm2iq8uyFYAXIKkXEN+NgPv8l+Luf+P2Pb8XmuhCZTDIOCd5sqav43a/MjDBx085or5d619GWdoFgDR2K6h8wL304lE51k4jx9qxNa5fKXmz6voX2+JBtgIqldq1ZflWAF6AeOtznESgLHf/4vp3vxXyJRuEU8Ki3zEuq3pSBx23+5HO9f/jp3fUPyr5yhxKvQA4dal5qh2EZ0oH0E4jx9rJNa5vmbGn/qUu8wVj28eUZSsAL8B8PYE0JeA++6W4+39iceuDrs5H9D22uRFSQlb1xTYdt3vLIGrb4Iw1K81uyVfmUOoFgDT8Kcuq/7NizFflWDuOdnI970c6kLlw/Us940G2AlZc/szL4nFFPcYLUNSWHU29ynL3L67/ShBdLNT6GdvyoCc26rjdSwbWfPLNy2vfkzxlD6VfAEgHiNq197itgF9qx9EPhZ73I/Pi+vc7vGwFGGtvKMNWAF4Av/U5jxNwn/vC3/03rA1Da693i52O67+fsU0YZV1Px+xeUr791ZypNeLtXuZjFgCu9U8+wvzK2KjzrQDpDNrZe3UmTc/6U/+9OrhsBWypz67ppVeEdLwARWjF0dehLHf/h93fep8NzO8LQR2/8i6lLjpmzyfFS+tudtbIt8AkD0H6AKFD4KTlU3c6L8DX5EQ/EPN1JtGTdOlUdz3YfKLViqYlLq/BPRB09XGN2d/Oq/392o0XoF9S5dJzn/nC3/2L6z+w0UcGGd+kF/QzDk5ST66tdZpPut+C+ay8CE70CXsJsACI9YSqqZ3TbSsgqVNJ1ry6/mPV7hyaIDpodz34mzJsBeAF8Fu/3OdluPtX1791W346oSeNa3mLl96rdUqW5metA2oXlbunP7/2LABiTI5fah53v5p3rkYld6Znn4jN2VP/Wq8kKVsB99R2vTUpvSjxeAGK0pKjqYeb8Ap/9//q7c13+67/nuObm1YlZF2v14JF6mBDexaufyGxf2ABsD+P4ORli/7eOZRu7dWpiuL696rvTs1nVlxZ/K0AvADPb/kyxpTh7v/Wbbv/iwnsem1fndB7j3F7p4es62l9kqSr+xdPObz2Ta0/8jkCLACeY7HvqFqZe7frTE9KRFKnKorrf1+lnz1wvxh4kGm19/1Ykp9elHO8AEVpyeHq4Sa3Qt/9i+vffaZvFNe/ktIJPWlsy1u81Evr1EU+ZqqL3G+/ELoRqHaLLHvcia+feezWrXPvDYy9STqUfCDishUFv7jzwbmlxeQUuTdkhiesXL/zzzavW/w/ilnHvbVy70K7PGiZQ4pcR+o2P4FOH5hfJdeph93fPMe5/o+WSugYphO8nuddSt20Tr5sB2btKa8znZs50SPsT8AtDglJBDZt2/M/3S7YcfF0cf3f+UD7X3/+ePuweHzRjt0rQp9ybvJXyZ1y0epGfSBQBgKbvv/My2w1fNjd/S+J11cn/Hhcno+1Pr503/m/afWy6ml5rlvatrMFMA/hsNI6wyV3Vo/SuSQU1fXfqVzsT+dbAbXibwXEqswhBApFwFYrG3Ty1/FLKqh3yRqXd6n1iUtXp8fazcp5hWrQFCrDAmAeqLIVEBrzIVGRzpX3F/7MU9WuSXu3Anac2jWRSAhAILMENm2bc65/+0c6uevkKAb7cZqWVxmvk9YtMNHZpx5lnshsA2XEMBYAWjkU8wAAHcVJREFUPRpi1dL6F0xg/tmBKsQLf3pU10t2vxQehNcc1djxm14CpxCAQEYJdFz/gb1MzNNJfd/E2CVO0/Iq4/WU+spvu6xauuh2iSfMT4AFwPx8Oqk2iM78+ePRt4q+798NhXsE8pBFteC6bmnEQQAC2SPQzfWvCwGxVid6jcu7jNfJfeXvcbOo9v7stUo2LWIB0Ee7rF429dOv39+6sw/VQqq4J0VPWHnZjpMLWTkqBYECEXCu/3eK61+rpJO7TvoS78dpWl5lvE7OW3vmia82v9T6I+cnwAJgfj77Uo9uLf6ce0nOvfsiSnZgbPhFtgJK1uhUN1cE7nhg10vcpt2VYrQ/meukH0/TuLxLrat7Zunrq5YtujVXjTZhY1kA9NkAjYaJWlFbvhWwu88sBVOTrQDz2YJViupAoDAEonb1eleZF0iF/EldJ8l4msblXUpdxfVfmaq+U+pH6J8AC4D+WQX3XnzQT1xXK+0PSrgP2alsBQzQYVCFwJgIONf/6fF3lviTui4IxBxN07i8S6mTe1j5fbj+hcRggQXAYLyCFc2ZT7r3An5nwGyFUWcroDBNSUUKQuBZ1/9VUp2kyV3jRUcnfI3LvwzuWr2s/mWpG2EwAiwABuMVyFaAC+JqKu1WwFStcvWA2FCHAARSItBs1z/vit7P9e9P6jrpiwmapnE5l0+6XzF9V0poC18sC4AFNPG9Fy/5cWDCfb+utYAicp6l/dZjL9t1Us4rgfkQyD0B95sl73Bv7TxRKqITuxz7k3q3NI3LswwDc95Jy6cflToTBifAbwEMzqyTY0XD/YxIbcf33ddOCvqjQPODsTb4j3orOvSbjYN429b8qEiFQCoEOq7/dvVHbu//hf4FZFKXRYDKeHq3uHh6Xo7d5H/3qmX1P8yLvVm0Ew/AAltlS8O0gkp4hvye+AKLyHU2Y4IXz1UrnX3HXFcE4yGQUwKtdv0zOvn7d/FF9wC4O9dZV0ee+h+y77IAGALg5gsWP2Rs8LEhish1VmPsGrYCct2EGJ9TArdum/sL5+hfrRN/0oTvp0t1/Tg/bx7OjTHnyQvactp8mTGbBcCwTdFa/BHnDn9o2GLymt89EPmFP2489TwXZF7rg90QyDqBO7fbQ9y+/yfETp2sdVJXqfEqNX6+PKqTdem+jnyP/EZL1tspD/axABiylTpbAVXzdldMa8iicpldtgKa9fCKXBqP0RDIIYE527rWBuYQMV0na53oVWq8So2fL4/qZFmK67/WDtbmsNkyaTILgBE0i2wFBNaUdz/cBmtXXL7zTSNASREQgMA8BG7btuct4vpXFZ2sdaJXqfEqNV7y+XGalnUptruFz7rjj5z6iRwThifAAmB4hp0SDm7NfNia8JERFZe7YkxkNxzX+NWBuTMcgyGQEwJ7Xf/mU2KuP1nrpK4yKT2eV3XzIKU+zvX/3R99o/aZnDRXLsxkATCiZrqlYeZMxZzmvhXgHswtX3CuuZfurk1dXr6aU2MIjIdAyzY/537s50VyNX/STprwVU/T43k1LutSbHbPPOyuWvMueRGbnBNGQ4AFwGg4dkr51vnTWwOzd4U+wmJzU5T7kP4lWwG5aS4MzRGB27fuPt5N/n+aNFnrRK/S19N4qbKmaVzWpdgcmfDiE5YvKq2HVRikEVgAjJiqmZtZ5/ap/m3ExeanuCj4PFsB+WkuLM0+gdt+YA9um8oGsTRpstZJXaWvp/HxMjQu69LZ/IOH/6Ha+daD2E8YHQEWAKNj2SnJfStgt62Gby/rVkAY2Je7rYBLR4yV4iBQWgJhpflpN/W/WAAkTdZJE77qa3q8DI3LsnQT1FzNBqfj+k+n+7MASIHrlvOn73MfvGtSKDoXRboB5exj1+9YmQtjMRICGSYgrv+2tX+uJiZN1jrRq/T1NF7K0TSNy6oUW00QfgTXv5BIJ7AASIdrUKtPX+jW66V8U1XFVbwdmBve+HE7kxJeioVA4Qls+qF9gftmUedGotckrZO6Sl9f4wWapmlcVqWz88EHd1ZL+6bVcXRwFgApUf6nD5hd7qG4M1IqPvPFylZAc26WbwVkvqUwMLMEmk33lT/zUrGv1yStk7pKX1/j42VpXEZlqx3ZtY2V7jdXCKkRcN/eIqRJ4JjLdmxwb68o5Zur5DkIY+3RWy468DtpMqZsCBSNwMZtrT8xQfsbWi+ZpGVST5Kqp9LX03iRmhaPy9yxDS5ZvXzRX2fOroIZhAcg5QZdNDd3ng2CUv5etWwFGBPe4H46eSplzBQPgcIQuHm7PagSRNdKhWSyluDf0fvnqqcyKT1elupmTbp9/x8/vat+Wafi/EmVAAuAVPEGwV2Ng592kOW3AkoZ3Nu7ftfWd60vZeWpNAQWQKBi25903/nfz/Xfa5JOmvA1n6aLOX6cpmVBurGyFUX2bWtWmt0LQEeWAQmwABgQ2ELU7163ZLO15qaF5C1EHmvPXXHp039QiLpQCQikSOCWB5rHBkF7jVxCJ2o57jU5q65KX1/j42VpXFak2ObCJ045or597yF/0ybAAiBtws+WP9Xacy5bAWwFjKm7cZkcEvjKffbAatvuu1HQSVyq0muSVl2Vvr7Gx8vSuCxIsVdc/81mvSE2EsZDgAXAeDh3tgKiSnj2mC6XucvIVkBY3fXhzBmGQRDICIHpavsqdf0nTeBJk3UvfU2XqmoZGjdpuRe/c/wHwdpTjzLPZKQ5SmEG3wIYczMfs372y87F99YxXzYTl5NvBVSqlf/a+c2ETFiEERDIBgFx/Yft6F+SrJFJWibuJOnn8/Xi6ZoWj5v0cWjN1auW18+btB1luz4egDG3eK3ZfI+1wX+IU69sQb4VYNv2Rr4VULaWp77zEbj5Ebs4bJvrVEcmaAkq5Vjv2pOk6qr09TQ+XpbGTVoGQeVnzZlaQ2wjjJdA+Wah8fJ93tW+2TjoiTAMz5KPdBmDscGhQXXnujLWnTpDoBuB+mzzCucVfLmm+ZO3xPeapP08vr6mx8vSuInLil176qFmp9YfOT4CLADGx3rfle7+0Mzt7iO9cV9EqQ6cG9MEFxxz5ezyUlWbykKgC4HbtjaPbge282yQP2nruWTrNUmrrkpfX+PjZWncpKTYUgnMNW9+fe1uOSaMnwALgPEz71wxaradFyB8fEKXn/Rlq7bZ3vDmhq1P2hCuD4FJEbj5e/YAd2u/z/XvT9p6Lvb1mqRVV6Wvr/HxsjRuEnKvfZWfzU3XLpgUf64r/YowEQJbGgc+bgP7nolcPAMXNSZ4zX9Wd16cAVMwAQITIVCvNT9ubfQKubg/YfvnvSbpXvqaLtfSsjRu3FJtsKE9C9e/0Jhc4FsAk2PfufIx63fd6j6SJ0/YjEld3v3QR3jEt9bNPDApA7guBCZB4JatzaOqJvq2exKor5swmaRl4k6Sfh18vXi6psXjxn1sTOW6k5dW3znu63K9/Qn01fn2z8LZKAk0g+Ac97F2WwGlbIqquwO6ka2AUfYoyso6AXH9V8LgSzr5y4QsIUlKmt61J0k/r6+n6fGyNG4C8jFTqXxQbCFMlkApZ53JIt//6sc2p3/pXpLzfvmIlzHIVsCv6rMMBmVs/JLWuVpvXq6uf0HgT9b+uej0mqT9PL6+psfL0rhxy8BEZ696nXlSbCFMlgBbAJPlv+/qKy99+i5jzJv2RZTowL0gaM51xMO3rFvyryWqNlUtIYFb75s7MqxYcf1XZZKWybeX7AeTX4afR9Pj8Ro3ThlY+zfuhT/viNvB8eQI4AGYHPv9rjzVqq61QfjUfpElOXEvCKq79wN8ha2AkjR4SavpXvhTNxVzvUz+gqDfO2/RlUl6PumX5etrerwMjRuXDAL7y2ar9r5ORfiTCQIsADLRDPKzwdO/cJNgab8S0/lWQG3XezPSHJgBgZETqO1qXmaD6FAp2J+ge533mqT9/L6+psu1NU3jxiXdAuBs967/J8QGQjYIsADIRjt0rHhDa3qDtfYfM2TSWE1xX4v86Ir1O1411otyMQiMgcDt2+eOCMxzX/vVSbhf2WuS9svx9TVdqqppGjcO6X7r72urli1y33giZIkAC4AMtUajYSJbqckLgkr5WszOVkAQXNdoWPplhvolpgxHQFz/kTU3qOtfJ+B+pVy91yTtl+Xra3q8LI1LW7qHnB8Pp2qlfefJcL0n3dwMtOnyHbj0LRce8HP3hHBp35XvfhP8yC1sBQzcb8iQXQKVZ+Ya6voXK/3Jude55Ok1Sftl+PqaHi9L49KWQWD+6sRXm1/KtQnZIsACIFvt0bHm6Nbiz7kPzb0ZNG0MJrlfRA/sZW+4ZMcrx3AxLgGBVAls3Db3utAG7mu+vSdxf9LWc8nba5JWXZW+vsbHy9K4NKVb0H/95GWL/l6uS8geARYA2WuTQLYCorDydvf1uNkMmpe6SbIV4F6UciNbAamj5gIpEhDXv9v7/pJz/Xd+88KflPs9FxN7TdJ+Wb6+psfL0rgU5ZOVypzb0iRklQALgIy2jGwFmMD8dUbNS90s914AtgJSp8wF0iRQ2TV3kXP9HybX8CfkQc97TdJ+eb6+postmqZxaUnnxXz3ia+feUyuScgmARYA2WyXjlUrmjOfdK8J+U6GTUzVNPlWwBsuearzYympXojCITBiAhvv33OY+9nr83Vy1Ul3oVLLSZJ+ub6epks1NU3j0pBuYrlr9bL6l0eMleJGTIAFwIiBjrK4zlZA1DrNlbl7lOXmpSy3FTBdCcO/ZSsgLy2GnUJg82ZbrUTmRnH96+Sqk+5CpZaTJP1yfT1NF/s0TeNGLZ33boex7XfJtQjZJsACINvtExzTPvD/iwLTyLiZqZknWwH3VHeek9oFKBgCIybw65nWh9yjrIdLsTq56qS7UKnlJEm/XF9P00dpk5bpS7d1+d6Tlk8/OmKsFJcCATe+ErJOYEXDVk1tx/fdB2tp1m1Nwz55GNJG0Wvvvfign6RRPmVCYFQExPVfiYJt+uCflisTskyUC5VaTpL0y/X1ND0er3GjlO5tf3evWlb/w/h1OM4uATwA2W2bfZZtaZiWDcwa+dGcfZElOpCtgLBS28BWQIkaPYdVjbv+1XyZXCX4d8mDnms5SdIvz9fTdLFF0zRuVNI98DjrynqnXIOQDwIsAPLRToH8Ul7FhJfIx7eMIbTtFfdWZxlcytj4Oanzk0taFyS5/nXSXajsNUn75fr6mi4oNU3jRiXdr5met3rZ1E9z0lyY6QiUczbJadMfPDf9MRu0t+fU/KHNbpvoar4VMDRGCkiBwMbte37PxN7g6U+yer5Q2WuS9sv19TVdqq5pGjcK6V73+92HDq99MQW0FJkiARYAKcIdddG3NMxcUAnPcOW2Rl12HsrrfCugUruWrYA8tFZ5bBTXv/slzy+5n/OeklrrBCvHOrlq3EKllpMk/XJ9PU0fpU1apnuQbLbWDtY0jHGPPhDyRIAFQJ5ay9m6+YLFDwXWXJUzs0dmrvt60TFsBYwMJwWNgMCvl7TOc8Uc4U+6UrROkn7aoOdaTpL0y/P1NH2UNmmZ7vmkdccfOcUDugI3Z4EFQM4aTMw9uDXzYWvCR3Jo+khMtia44g8bz/zOSAqjEAgMQUBc/6GNPixF+JOuxOkk6acNeq7lJEm/PF9P00dp07Nl/uBH36h9Rsol5I8AC4D8tVkgWwGmYk5z3woopcvNBNFB7bq9ia2AHHbeApncsDYMrb3efQ47rn9/0pWq6sTrpw16ruUkSb88X0/TR2mT+xzurtngdHlhWYGatVRVYQGQ0+b+1vnTW6uhuTqn5g9ttmwFbKnPrhm6IAqAwAIJHHZ/633O/f37kt2fcPVcJ149X6jUcpKkX66vp+liq6Zp3EJlZMKPnLB8UWk9kcIy74EFQI5b8IV7Zi4q81aAe/Dq6uMas7+d4ybE9JwSuPO+3a8IbPQRNV8nVV/q5OrHD3qu5SRJvzxfT9PFXk3TuIVIV8aDD++olvZZJG33vEsWADluQdkKsBVzRpm3AnZXW9fluAkxPYcExPXfrATXud+6nxbzdUL1paTp5OqnDXqu5SRJvzxfT9NHY1Mw1w6jtzdWmlJ+G0kYFiWwAMh5S245f/o+9+G+JufVWLD57uUjb1q5fufbFlwAGSEwIIFXb2++27n+j/YnWf9citWJ108b9FzLSZJ+eb6epo/CJrf+WX/K4YseHhAb6hkkwAIgg40yqEm1+vSFbkD6t0HzFUfffGbFlWwFFKc9s1uTTd9/5mXupTcfFQv9SdY/Fx2deP20Qc+1nCTpl+frafqwNjmvx8OtmeoVUg4h/wRYAOS/DYN/+oDZFQb2zAJUZUFVkG8FmFa7tF6QBUEj08AExPXvXvnjXvgTLJHM/iTrn4uOTrx+2qDnWk6S9Mvz9TR9SJtaUWRPP/VQ90IyQiEIsAAoRDMGwd3rlmx2byL7fEGqM3A13NvITnBbAX82cEYyQKBPAq/Z3vxLcf2Luj/BJp3rxJuU3m+8lpMk/XJ8PU0X2zVN4/qVgQ0uP+WIemlfRS7sihZYABSoRd1WwAejwPysQFUaqCpucP70f1u/67cGyoQyBPogIK5/G9jLVFUn0V5SJ9deer3StZwk6ef39TRd7Nc0jetHOtf/j5/eVd9Xf+WAzDcBFgD5br/9rJetgEpgT98vskQn7hfXD6kG0bUlqjJVHRMBW61sUNe/TqC9pJimk2sv3V7pWk6S9PP7epq+MJuCqG2DM9asNLvHhJvLjIkAC4AxgR7XZTpbAdbcNK7rZe06e7cCdpyaNbuwJ78ENm2fO8vd/f+R1sCfXJPORV8n3iSdfuO1nCTpl+PrafpCbHJ5rnrz8tr3JC+hWARYABSrPTu1mWrtOdfdrTxawKr1VSXnrrzmqMaO3+xLGSUIzEOg4/q39kpR8SfVXueSRyfeXrq90rWcJOnn9/U0fVCbjAl/0mzWG5KPUDwCLACK16bBXY2Dn44q4dkFrFqfVYoOWVQzn+1TGTUIJBOohp9X178/qfY6l0J14u2l2ytdy0mSfn5fT9MHscktXyJrgzWnHmWeSQZESp4JsADIc+vNY/s9F8zcGQSVr8yjUugk913tU1detuPkQleSyqVKYNO2Ofc8TXicXMSfUPs914m3X/0kPS0nSfr5fD1Nl7pomsYlSWvMZ1cvq31X8hCKSYAFQDHbtVOrWrP5HreC/48CV3HeqhkbfpGtgHkRkZhA4I4Hdr0kCuxVOlkuVOrkutD8mk/LSZKqp9LX03iprqZpXHdZ+VnrgNpFCXiILggBFgAFachu1fhm46Anomr4zm5p5YiLDpmqVUr7i4nlaON0ahm1q9e7kl8gpeuEOaiUvDq5DprX19dykmQvfU3vx6aOTsWudS/82SnHhOISYAFQ3Lbt1Ey2Atz3428ueDXnqV77rWwFzIOHpOcRuHXr3DvcD9x3XP+SmDTp9oqXvDrx9tLtla7lJEk/v6+n6f3Y5LbPvvjm19fuFl1CsQmwACh2+3ZqZ5uReyAwfLwEVe1exSi45o8bT72weyKxEHiOgLj+A2M/KTH+JDrouZShE++geX19LSdJ9tLX9F42hYF51FQXXSB6hOITYAFQ/DYOtjQOfNx9j/k9Jahq1yq6rzK9eK5a4bfLu9IhMk6g2a7L67Q7rv+kybbfeClXJ95+8yTpaTlJ0s/n62l6L5vaoVm76nXmSdEjFJ8AC4Dit3GnhpvXLf4fbji6rSTV9arpXpBszJpjL9t1kpfAKQT2Ebh129xfuB+WOlEi/Al0oec68S40v+bTcpKk6qn09TRe6qZpGqfSfWvoplMOr31TdAjlIMACoBzt3KllMwjOiUq7FeCGvSj6AlsBJerwA1T1jh/ZF7lf1PyUZtFJclipk+uoytHyfOmXn5Qu9dO0eB4X91hYrbxP648sBwEWAOVo504tv71u5t/dAz7vL1GV96uqMQFbAfsR4UQJtHa3rnEP/nWeE9EJclgpZeskO2xZWk6S9Mv39TS9m00dBiY6G9d/h0Sp/rhXpxPKRmDl+h13yDvzy1ZvrW8UmuO2XLj4H/UcWW4Ct23b8xb3tr+/S4OCTLw6GQ9TvpaTJP2yfb14uqZpXMWYr560tP5WPUeWhwAegPK09b6atoLwTBuET+2LKNmBiewGtgJK1ugJ1b1zuz3EBKbj+peJUcKopJSlk/+wZWo5SdIv39fTdN8m5xF8vBLUzpV4QvkIsAAoX5sHshVgTVDerYAgeGmzHl5Rwqanyh6BOdu61r3x70US7U+aw55LmTrxDluWlpMk/fJ9PU33bXKLnzOPX2rK+xVhAUKAAAQgAAEIQAACEIAABCAAAQhAAAIQgAAEIAABCEAAAhCAAAQgAAEIQAACEIAABCAAAQhAAAIQgAAEIAABCEAAAhCAAAQgAAEIQAACEIAABCAAAQhAAAIQgAAEIAABCEAAAhCAAAQgAAEIQAACEIAABCAAAQhAAAIQgAAEIAABCEAAAhCAAAQgAAEIQAACEIAABCAAAQhAAAIQgAAEIAABCEAAAhCAAAQgAAEIQAACEIAABCAAAQhAAAIQgAAEIAABCEAAAhCAAAQgAAEIQAACEIAABCAAAQhAAAIQgAAEIAABCEAAAhCAAAQgAAEIQAACEIAABCAAAQhAAAIQgAAEIAABCEAAAhCAAAQgAAEIQAACEIAABCAAAQhAAAIQgAAEIAABCEAAAhCAAAQgAAEIQAACEIAABCAAAQhAAAIQgAAEIAABCEAAAhCAAAQgAAEIQAACEIAABCAAAQhAAAIQgAAEIAABCEAAAhCAAAQgAAEIQAACEIAABCAAAQhAAAIQgAAEIAABCEAAAhCAAAQgAAEIQAACEIAABCAAAQhAAAIQgAAEIAABCEAAAhCAAAQgAAEIQAACEIAABCAAAQhAAAIQgAAEIAABCEAAAhCAAAQgAAEIQAACEIAABCAAAQhAAAIQgAAEIAABCEAAAhCAAAQgAAEIQAACEIAABCAAAQhAAAIQgAAEIAABCEAAAhCAAAQgAAEIQAACEIAABCAAAQhAAAIQgAAEIAABCEAAAhCAAAQgAAEIQAACEIAABCAAAQhAAAIQgAAEIAABCEAAAhCAAAQgAAEIQAACEIAABCAAAQhAAAIQgAAEIAABCEAAAhCAAAQgAAEIQAACEIAABCAAAQhAAAIQgAAEIAABCEAAAhCAAAQgAAEIQAACEIAABCAAAQhAAAIQgAAEIAABCEAAAhCAAAQgAAEIQAACEIAABCAAAQhAAAIQgAAEIAABCEAAAhCAAAQgAAEIQAACEIAABCAAAQhAAAIQgAAEIAABCEAAAhCAAAQgAAEIQAACEIAABCAAAQhAAAIQgAAEIAABCEAAAhCAAAQgAAEIQAACEIAABCAAAQhAAAIQgAAEIAABCEAAAhCAAAQgAAEIQAACEIAABCAAAQhAAAIQgAAEIAABCEAAAhCAAAQgAAEIQAACEIAABCAAAQhAAAIQgAAEIAABCEAAAhCAAAQgAAEIQAACEIAABCAAAQhAAAIQgAAEIAABCEAAAhCAAAQgAAEIQAACEIAABCAAAQhAAAIQgAAEIAABCEAAAhCAAAQgAAEIQAACEIAABCAAAQhAAAIQgAAEIAABCEAAAhCAAAQgAAEIQAACEIAABCAAAQhAAAIQgAAEIAABCEAAAhCAAAQgAAEIQAACEIAABCAAAQhAAAIQgAAEIAABCEAAAhCAAAQgAAEIQAACEIAABCAAAQhAAAIQgAAEIAABCEAAAhCAAAQgAAEIQAACEIAABCAAAQhAAAIQgAAEIAABCEAAAhCAAAQgAAEIQAACEIAABCAAAQhAAAIQgAAEIAABCEAAAhCAAAQgAAEIQAACEIAABCAAAQhAAAIQgAAEIAABCEAAAhCAAAQgAAEIQAACEIAABCAAAQhAAAIQgAAEIAABCEAAAhCAAAQgAAEIQAACEIAABCAAAQhAAAIQgAAEIAABCEAAAhCAAAQgAAEIQAACEIAABCAAAQhAAAIQgAAEIAABCEAAAhCAAAQgAAEIQAACEIAABCAAAQhAAAIQgAAEIAABCEAAAhCAAAQgAAEIQAACEIAABCAAAQhAAAIQgAAEIAABCEAAAhCAAAQgAAEIQAACEIAABCAAAQhAAAIQgAAEIAABCEAAAhCAAAQgAAEIQAACEMgMgf8fxEKdd70Zuw4AAAAASUVORK5CYII=;" vertex="1" parent="1">
          <mxGeometry x="613" y="260" width="40" height="40" as="geometry" />
        </mxCell>
        <mxCell id="_v1DKOq9-sfsuuMIZ3_m-45" value="Kubernetes Cluster&lt;br&gt;DNS Endpoint" style="text;html=1;align=center;verticalAlign=middle;whiteSpace=wrap;rounded=0;" vertex="1" parent="1">
          <mxGeometry x="578" y="300" width="130" height="30" as="geometry" />
        </mxCell>
        <mxCell id="_v1DKOq9-sfsuuMIZ3_m-46" value="" style="shape=image;verticalLabelPosition=bottom;labelBackgroundColor=default;verticalAlign=top;aspect=fixed;imageAspect=0;image=data:image/png,iVBORw0KGgoAAAANSUhEUgAAAgAAAAIACAYAAAD0eNT6AAAAAXNSR0IArs4c6QAAAERlWElmTU0AKgAAAAgAAYdpAAQAAAABAAAAGgAAAAAAA6ABAAMAAAABAAEAAKACAAQAAAABAAACAKADAAQAAAABAAACAAAAAAAL+LWFAABAAElEQVR4Ae29C9RkRXmovWv3ZT6+bwb8hUTjill61jIrLhQvzAwckiMzkBjJWVyGQeKfGHWAUQhEUVHAgdgKw0XBO4rDzUQ9iTAwIPEQk+AMeMOZAQHD8f/j+tV1cJF4ggjMzMfM1927/np7eIc9Re+vu7/u3b0vT82a79276q3abz1VXVX7rd27g4AAAQhAAAIQgAAEIAABCEAAAhCAAAQgAAEIQAACEIAABCAAAQhAAAIQgAAEIAABCEAAAhCAAAQgAAEIQAACEIAABCAAAQhAAAIQgAAEIAABCEAAAhCAAAQgAAEIQAACEIAABCAAAQhAAAIQgAAEIAABCEAAAhCAAAQgAAEIQAACEIAABCAAAQhAAAIQgAAEIAABCEAAAhCAAAQgAAEIQAACEIAABCAAAQhAAAIQgAAEIAABCEAAAhCAAAQgAAEIQAACEIAABCAAAQhAAAIQgAAEIAABCEAAAhCAAAQgAAEIQAACEIAABCAAAQhAAAIQgAAEIAABCEAAAhCAAAQgAAEIQAACEIAABCAAAQhAAAIQgAAEIAABCEAAAhCAAAQgAAEIQAACEIAABCAAAQhAAAIQgAAEIAABCEAAAhCAAAQgAAEIQAACEIAABCAAAQhAAAIQgAAEIAABCEAAAhCAAAQgAAEIQAACEIAABCAAAQhAAAIQgAAEIAABCEAAAhCAAAQgAAEIQAACEIAABCAAAQhAAAIQgAAEIAABCEAAAhCAAAQgAAEIQAACEIAABCAAAQhAAAIQgAAEIAABCEAAAhCAAAQgAAEIQAACEIAABCAAAQhAAAIQgAAEIAABCEAAAhCAAAQgAAEIQAACEIAABCAAAQhAAAIQgAAEIAABCEAAAhCAAAQgAAEIQAACEIAABCAAAQhAAAIQgAAEIAABCEAAAhCAAAQgAAEIQAACEIAABCAAAQhAAAIQgAAEIAABCEAAAhCAAAQgAAEIQAACEIAABCAAAQhAAAIQgAAEIAABCEAAAhCAAAQgAAEIQAACEIAABCAAAQhAAAIQgAAEIAABCEAAAhCAAAQgAAEIQAACEIAABCAAAQhAAAIQgAAEIAABCEAAAhCAAAQgAAEIQAACEIAABCAAAQhAAAIQgAAEIAABCEAAAhCAAAQgAAEIQAACEIAABCAAAQhAAAIQgAAEIAABCEAAAhCAAAQgAAEIQAACEIAABCAAAQhAAAIQgAAEIAABCEAAAhCAAAQgAAEIQAACEIAABCAAAQhAAAIQgAAEIAABCEAAAhCAAAQgAAEIQAACEIAABCAAAQhAAAIQgAAEIAABCEAAAhCAAAQgAAEIQAACEIAABCAAAQhAAAIQgAAEIAABCEAAAhCAAAQgAAEIQAACEIAABCAAAQhAAAIQgAAEIAABCEAAAhCAAAQgAAEIQAACEIAABCAAAQhAAAIQgAAEIAABCEAAAhCAAAQgAAEIQAACEIAABCAAAQhAAAIQgAAEIAABCEAAAhCAAAQgAAEIQAACEIAABCAAAQhAAAIQgAAEIAABCEAAAhCAAAQgAAEIQAACEIAABCAAAQhAAAIQgAAEIAABCEAAAhCAAAQgAAEIQAACEIAABCAAAQhAAAIQgAAEIAABCEAAAhCAAAQgAAEIQAACEIAABCAAAQhAAAIQgAAEIAABCEAAAhCAAAQgAAEIQAACEIAABCAAAQhAAAIQgAAEIAABCEAAAhCAAAQgAAEIQAACEIAABCAAAQhAAAIQgAAEIAABCEAAAhCAAAQgAAEIQAACEIAABCAAAQhAAAIQgAAEIAABCEAAAhCAAAQgAAEIQAACEIAABCAAAQhAAAIQgAAEIAABCEAAAhCAAAQgAAEIQAACEIAABCAAAQhAAAIQgAAEIAABCEAAAhCAAAQgAAEIQAACEIAABCAAAQhAAAIQgAAEIAABCEAAAhCAAAQgAAEIQAACEIAABCAAAQhAAAIQgAAEIAABCEAAAhCAAAQgAAEIQAACEIAABCAAAQhAAAIQgAAEIAABCEAAAhCAAAQgAAEIQAACEIAABCAAAQhAAAIQgAAEskXAZMscrBkXgU3b5t4ZBfaL47pe1q5jXN1PXjZ1Ztbswp7xEjhm/a5bgiA6ZbxXzc7VrAlWb/7QktuyYxGWjJNAOM6Lca1sELjjgV0vcZP/lWJN6P6VTYaBedRUF13QqTh/Sk0garbPcp+Cx8sKwdjwi0c1dvxmWetf9nqzAChhD2i3619w1X6BVD1y/8om26FZu+p15slOxflTagJbGgc+boPo7PJCiA6ZqlWuLm/9y11zFgAla/9bt869ww14J0i1y3j3b0zlulMOr32zZM1OdechsHndkpvdp2HjPCoFT2q/9djLdp1U8EpSvS4EWAB0gVLUKHH9h8buW+2X7e7ftetjplL5YFHbl3otnMDupngByrsVEEXRF/648dQLF06QnHkkwAIgj622QJtb7fpnnMN/34e8bB6AwERn4/pfYOcpeLbvNZb8HxvY9xS8monVMyZ48Vy1clWiAgmFJMC3AArZrM+v1G3b9rzFBOHfyV2/TPx69/98zWLGhNb8zarl9XcUs3bUalQE3LcCbnVPxpw8qvLyVk4UmuO2XLj4H/NmN/YujAAegIVxy1WuO7fbQ0xgPqWTvsoSeQAea7Zq78tVo2HsRAg0g+Act0Qu6bcC3PdjIruBrYCJdL2JXJQFwESwj/eiLdv8nPva34vkqjrpy7EuBIouxfV/6lHmCakzAQLzEfj2upl/d++IeL98UsoXosC5hF/arIdXlK/u5axxGXt5qVr69q27j3eT/5/qxK+TvZ4XXVaM+eqqpYtuL1WjU9mhCGxet/hv3Tdlvj5UITnO3LbB6Ssu3/mmHFcB0/skwAKgT1B5VLvtB/Zga8LrxHZ/4tfzIkt3J/d4Jaidm8e2w+bJEmgF4Zl7twLKN0RWxP0RBZ8/rvGrAyfbClw9bQLl691pE81Q+WGl+Wnf9a8TvphZ9Lt/99zDmccvNSXdz81QR8yhKcc2p3/p/OHubZF7X5SVwyoMZXIY2Jfvrk1dOlQhZM48Ab4FkPkmWpiBG7e1/sQE7W/4uWXSjy8C/PSinLvHmb62aln9LUWpD/WYDIGVlz59lzGmlO7wtlv9GGuP3nLRgd+ZDH2umjYBPABpE55A+TdvtwdVguhaubR/lx+f/P20opyL6z+cqpX2O90T6HKFveRUq7rWBuFTha3gPBXrbAWY8G/f+HE7M48aSTkmwAIgx42XZHrFtj/pXP8vlXSd8FXqJN8tTXXyLoPA/NWJrza/TOJDPAT6JXBXY/oXxspWQDmDbAXsae76aDlrX/xaswAoWBvf8kDz2CBor9Fq6YSvUid3PS+adC87+vrJyxb9vdYfCYFhCbyhNb3BWvuPw5aT2/zWnrvi0qf/ILf2Y3giAZ4BSESTv4SbH7GLK7Pth90C4OVJ1suEr4uAJJ28xnee+p9a9Cru/vPagtm1e8Xlz7wsjKIfOZ/a4uxamZ5lNjD/Zpszr9nSMLvTuwolj5sAHoBxE0/xetXZPe5d3vtP/v4dfnzy99Pyfo7rP8XOVfKit1x4wM8DG3ygrBjc4vp3w+quD5e1/kWtNwuAgrTsbVubR7tV+rukOjqRy7FO+CrnS1OdPEpc/9LahDQJyFZAZCpb0rxGpss29rxjrpxdnmkbMW4gAiwABsKVTeWbv2cPcLN+54U/YqFO4HKsE77K+dJUJ2/SVfPJSmXuLKkvAQJpEWg0jHtXrnHP14Q707pGxsut2mZ7w5sbtp5xOzGvTwIsAPoElWW1ar15ubXRK8RGf/LWCV+lpouuxuVdOtf/u098/cxjUicCBNIkIFsB7rO2Ls1rZLlsY8LX/Gd158VZthHb+ifAAqB/VpnUvPW+uSPdyzrOVuP8yVwnfJWaruf5l8Fdq5fVv6z1R0IgbQJHtxZ/zi067037Otks370g2b0h0f1s8uuzaR9WDUKAbwEMQitjuu6p/3p1tvWA++GSQ8U0mcxlglfZzdz50rrpZzzuSffOg8NOWj79aMbtxLyCEXjDJU+9ohqG7hs3wVTBqtZXdawNHjqktXj5LQ0z11cGlDJJAA9AJpulP6Nqs3OX6OQvOfTuXqXE+Xf486X5ulk/D6x5L5O/tDJh3ATuvfign7gHAi4a93Wzcj1jgtf8qj77wazYgx0LI4AHYGHcJp5r47a517mv5mx1hlT1rt6X3YxUnW5peYpzP/Tzzycvq78xTzZja7EINBo23FKbvcf53Ur5khz3WwFzbgI5fMu6Jf9arJYtT23wAOSwrcX1737sRva9q2K+3tX7UtL8u3jV6Zbm62b13A06O0LbOl3qQIDApAjItwKiqHWau34pX45TCYK6+yxeJwuhSbUB1x2OAA03HL+J5K7smrtIXf+9Jmmd8FWqvhiucXmT7u4f1/9Eeh4X9Qk8uxXQ8OPLcu4WAEduqe16b1nqW7R6sgDIWYtuvH/PYe4p3PN1Iu81eaueStWXamtcnqTzfNztfub3hpw1G+YWmMCK5szHbRDcV+Aqzls1G9jL3nDJjlfOq0RiJgmwAMhks3Q3avNmW61E5sbIud50Iu81eaueStWXK2hcXqTzesw6W9/ZnQ6xEJgMAdkKaEfBae7qpd0KqITBjWwFTKb/DXNVFgDD0Btz3ieXtC5wP/N7uFxWJ/Jek7fqqVT9eBmalnVpjDlv9bKpn44ZO5eDQE8C91685MeBCdf3VCyogmwF3FPdeU5Bq1fYarl2I+SBwMbte36vaoMfuidv9/vesUzaMqknSb9uqufHZ/3cfePhnpOXTa3Iup3YV14CKxq2amo7vu+eUVlaRgpubJq1UfRaeS6ijPXPY53xAOSg1cT1b2zwpfjkr3frekefJFVPpepJtTUu69KtUmdr7WBtDpoKE0tMwP1UbiuohGe4z2kpX47jvhUwHVZqG9gKyM+HgAVADtrq10ta5zkzj9CJWkzWiVzjkqTqqVS9eBmallXp7qjOP/7IKe4qpNEImSaw+YLFD1VMeIksr8sYQttecW91lud0ctL45eylOWkcMVNc/4GNLpZjnaDlWCdyjUuSqqdS9fQ869K5/r/70NLa56XOBAjkgcDBc9Mfs0F7ex5sTcPGtomuXnH5My9Lo2zKHC0BFgCj5TnS0hrWhqG117uvGE1LwTpZy3G/E7nqqdQy9DzL8lnX/5qGcT/DSoBATgh03o/vtgKcua2cmDxSM2UrwP1A2Q1sBYwUayqFsQBIBetoCn319ua7bWB+X0vTyVrO+53IVU9ltzI0LWvS1X0drn9tfWSeCMhWQGSDK/Jk8yhtNbZ9zJb67JpRlklZoyfAAmD0TEdS4qbvP/My5/7+qBTmT8wSpxO5n+afq55KTY+XoWkZkz/40TdqnxE7CRDII4HfaC2+RH41Tz7BZQzuweWrV1w5+9tlrHte6lzOnpmD1nGv/NngXP9LxFR/YpY4ncj9NP9c9VRqerwMTcuKdC7E3TUbnC4vWBE7CRDIIwHZCjAmPM19gku5FeC28A4yrfY1eWy7stjMAiCDLb1p+9xZ7vWafySmJU3KOpEnpWu86qnUeClb4zInTXjxCcsXPSI2EiCQZwLfWjfzgPvZ6qvyXIeF2+5+MDkIT1i5fuefLbwMcqZJgAVAmnQXULa4/q21V2rWpMlZJ/KkdI1XPZVJ8Zo+aenq/YOH/6H6Ca0/EgJ5J3Bwa+bD1oQlXdC6d5cG5tP/bf2u38p7OxbRfhYAWWvVavh5df0nTcZicr8Tueqp1DL1PEsS13/WOiP2jIJAZyugYk5zLwgq5ZaWe1fpIdUgunYULCljtARYAIyW51Clbdo2d7obIY7rNUnLRXrp6MSueio1Pl6Gpk1aRib8CK7/oboQmTNK4FvnT2+thubqjJqXulnueQC3FbDj1NQvxAUGIsACYCBc6Snf8cCulzhnWWevUCfppAlZrOilo3lVT6XGx8vQtElKZ9eDD++olnSvNL1+RcnZIfDCPTMXlXcrIJDnAa45qrHjN7PTIljCAiAjfaDZrsvb7l4g5ugknTQh96OjebUslRofL0PTJieDuXYYvb2x0r1LnQCBghKQrQBbMfJbAaXcCnDVPmSqVimtFySL3ZoFQAZa5dZtc39hguhENUUn6aQJWfR66Whe1VOp8fEyNG1S0v2M6iWnHL7oYa0/EgJFJbDl/On7AmM+VdT69a6XfevKy3ac3FsPjXEQYAEwDsrzXOOOH9kXhYHtDAg6OatMmpCluF46mlf1VCbFa/oE5IMP7aiW9o1p83QNkgpKYFFt5q/dk/H/VtDq9aiWc35EwTV/3HjqhT0USR4DARYAY4A83yVau1vXuI9E58Ogk7PKpMlYyuulo3lVT2VSvKaPWbbagT0N1/98PYS0ohH4pw+YXbYavr2sWwHGBC+eq1Z43icDHZsFwAQb4bZte97ipvLVaoJOziqTJmPR76WjeVVPpcbHy9C0cUtjnet/Wf2HWn8kBMpCQLYC3OettG/JM8auOfqKXceXpb2zWk8WABNqmTu320NsEH5SLq8Tr07OKjXel5Knl47mUT2VGh8vQ9PGKd0TwQ+3ZnD9SzsQykmgVp++sLxbAW7ca0Ub2AqYbN9nATAh/i3b/Jybxl8sl9eJVydnlRrvS8nTS0fzqJ5KjY+XoWnjku7arSiyp596qJkTOwgQKCMB2Qpwz/+cWca6S51lK6BZD3n+Z4IdgAXABODfvnX38e47/38ql9ZJV451clapab6M6/pp/rmWpVLT42Vo2rikezfo5accUd8uNhAgUGYCd69bstl5AuUrwOUMNli74vKdbypn5SdfaxYAY26DTT+0L3AvA9m396eTrpihk7NKTfNlXNdP88+1LJWarufjls71/+Ond9UvGzN2LgeBzBJwWwEfdJ/+n2bWwLQNi4LPH9f41YFpX4byn0+ABcDzmaQb02x+yt39v1Qu4k++Ojmr9NP1XPL20lFd1VOZFK/pKUtx/b9tzUqzW+pAgAAEgkC2Atx7QM4oKwu3DfLy3bWpS8ta/0nWmwXAGOlv3Nb6k8jYt+sl/clWJ2eVfrqeS/5eOqqreio1Pl6GpqUt3btAP47rX1sfCYHnCMhWgPt8XPdcTLmO3Lh09rHrd6wsV60nX1sWAGNqg6/cZw+sPPuLWEkTrU7OKpP0xOReOppX9VRqfLwMTUtTdlz/O+ofHRNuLgOB3BFYNDd3nvsl0EdzZ/gIDHa/BBq2A3PDGz9uZ0ZQHEX0SYAFQJ+ghlWbrravUtd/0kSrk7PKJD2xpZeO5lU9lRofL0PT0pNB5Aa2tbj+h+1F5C8ygbsaBz/tBuR9HsIi17Vb3WQrYE9zFzcJ3eCkFOd+pZGQNoFbHmgeG7ajf5HryCQrk7Avu9ng6+h5XFfjkmRcV45Vz49P8zy05upVy+vnpXkNyoZAUQisvHTnjfKinKLUZ5B6yNsRjbVHb7nowO8Mkg/dhRHAA7Awbn3nuvkRu7gSBV/QDHoH7ktJl8k5Ln0dPe9HR3WTyvTj0zo3JvxJs1W7uFMx/kAAAj0JTLX2nFvmrQA3ZtywomGneoJCYWgCLACGRjh/AfXZ5hXWRq8QrV6TrE7aKpP0paxeOppX9VQmxWv6KKXrXJG1wZpTjzLPiM0ECECgNwHZCrCheWdvzWJqmMD+bljd9eFi1i5btWIBkGJ73LK1eZQN7Fl6iV6Tq07OKpP0pbxeOppX9VRqfLwMTRu1tMZ8dvWy2ne1/kgIQKA/Aiv2zPyTteam/rQLqGXsecdcObu8gDXLVJV4BiCl5rj5e/aAar31UPzuXyZfmWS7yW5m9KObpKPxfrlJ8b7e8OeVn7WnK4e51/3uHL4sSoBA+QjIy3F2V+v/r7wyt3y1DwL3wrRHDpmbfv0tDV4Znlb74wFIiWyt2rxEJ3+5hN55J0nRkck5LvvRTdLR+KQy49fxdYY/7zzIs4bJv9Oc/IHAggjIVkBUDcu7FWCjQ/+zupPnhxbUe/rLhAegP04Dad2+fe4Ia+13oiCoymQqk3Ev2e0CSXniukk6Gh/XleOkeF9vmHNjzKdPXlo/d5gyyAsBCOwlcMz62S8HQfutJeXRcqPWEd9aN/NASeufarXxAIwYr3vqvx5Zc4NM/lK03on3kqIrk3NcJuXpR0fzJpXpx4/qPAgqP2sdULuoUxH+QAACQxOoNZvvcQ/T/sfQBeWzgKrzpN745oat59P8bFvNAmDE7VObnbvEBtGhUuygk6pO2iqT8kvZvXQ0r+qpTIrX9KFlxa7F9S8tRIDAaAh8s3HQE6XeCjDBa35Vn3U/mEQYNQG2AEZIdOO2uddVAnufu/tf0GpVJmeZgFXOZ1o/OpJf9VTGy9S4UclKYK45aVn9nPg1OIYABEZDYOX6nV9zX5E7dTSl5asU94KgOTdZHb5l3ZJ/zZfl2bYWD8CI2kdc/2FgvqSTv0yqEvqVouvffSfljesm6Wh8UpnxMnydhZ1XfrazXfuQlEuAAARGT8A2o7P3bgWUb9h2vxVQdwuA6xoNW77Kj74r7SsRmPtQDHdQ2TV3kXP9H6alDDqJSj6dtFUmlRHXTdLReC1LpcbHy9C0hUopy4b2rLceaZ6WYwIEIDB6AlsaBz7ufjHwPXKrUMbgflDsyC21Xe8tY93TqjNbACMgu/H+PYe51/1uk7t/mURlkh1UdjMjqYy4bpKOxsd15Tgp3tcb5NyYynUnL62W9utKg7BCFwLDEjhm/a5b3CLglGHLyWN+2QqwUfDaey9e8uM82p81m/EADNkimzfbaiUyN6rrX++wB5VihkzOcZlURj86mjepTD9+iPPHTKXCAzqdluMPBNInsNttBbjR4vH0r5S9K8hWQCUMbmQrYDRtwwJgSI5PLW590P3M7+FSzBCTaMcKnbRVJpUnyr10NK/qqUyK1/RBpfsN77WrXmee7FSAPxCAQOoEvtdY8n/cK8bdVkA5g3NbH3lPdScPG4+g+dkCGALixu17fq9qgx86t9RIfrlKJmeZgFXOZ1o/OpJf9VTGy9S4hUr3nf+bVi+rnhYvk2MIQGA8BNxWwK3uVuDk8VwtW1dxY+6sjSK3FXDQT7JlWb6swQOwwPZqWBuG1l6vk79MohIWKiWvf/edVFZcN0lH45PKjJfh6/Rz7sp/LKxW3iflECAAgfETaAbBOe52oaxbAdNhpbaBrYDh+h0LgAXyO+z+1vtsYH5fs/czaYpukp6k6aStsh/dJB2N17JUJsVrer8yMNHZuP6l1QgQmAyBb6+b+Xf3XoD3T+bqk79qaNsr7q3O8vDxEE3BFsAC4N153+5XNCvmQRsE0zJhyqQ6rOxmRlKZcd0kHY2P68pxUryvN995aM3frFpef8d8OqRBAALjIbBy/Y473EB+wniulq2ryFaACauHbrnwgJ9ny7J8WIMHYMB2Etd/sxJcJ5O/ZNU76mGllCWTc1wmldmPjuZNKtOP7//c/LLZquH677QUfyAweQKtIDyzzFsBxtob2ApYWD9kATAgt8Pub57jXP9H9z9h7j+pJ+UTM3TSVtmPbpKOxmtZKpPiNb2XdK/8OfvUo8wTA2JDHQIQSImAbAW4FwRdkFLxmS/W2PYxW+qzazJvaAYNZAtggEbZ9P1nXmar4cPu7n/JANn6VpXJWSZglfNl7EdH8queyniZGtevrBjz1ZOW1sv6s6RxdBxDIHMEVl769F3up7jflDnDxmCQDcKnpprmVXc1pn8xhssV5hJ4AAZoSvfKnw06+cukKWFUUsry776Tyo7rJulofFKZ8TJ8nW7n7mGjx82iWmkfOBJeBAhkmcBUq7pWJsIs25iWbSaIDtpdbV2XVvlFLZcFQJ8tu2n73Fnu5Rt/pOrdJklJW2i85NVJW2VSWXHdJB2N17JUJsVrepI0gTnzxFebX8q1CRCAQPYIyN2vsSXeCnDeD/eLiX+WvZbJrkUsAPpomzse2PWSyNrLRDVpghw2XsrWyVllUplx3SQdjdeyVCbFa3o36X7l8Gurli1yLx0hQAACWSbwhtb0BmvtP2bZxjRte8tR9TUyXqd5jSKVzQKgj9aM2tXrndoLRLXbBDmKeClDJ2eVSdeK6ybpaLyWpTIpXtN9Ka7/cKpW2teOCmsCBPJCoNEwUaVVe5cbTXbmxeZR2fnKl1S3HrLY/mG7Xf/CqMosejksAHq08KZtc6e7H/o5TtT8yXHU5zo5q0wqX2zppaN5VU9lUrym+zIIzF/h+hfiBAjkg8C/NA7434ENPpAPa0djZb0ePn3Mq6q/I6W5n2U/4bZte94ympKLXQoLgHnat+P6D+xVquJPjqM+18lZZVL5Yk8vHc2reio1Pl6GpvnS/f72109etujvtf5ICEAgHwQ6WwGm8q18WDu8lW9eVv1Xd1v04udKsp+940f2Rc+dc9SNAAuAblSejWu26593hx3Xvz85jvpcLqmTs8qka8R1k3Q0XstSqfHxMjQtLsX1X5mq8ppNAUWAQM4IyFaANeb0MmwFiOv/BTPBUdJEOr65d7UcYvc0r85Zs43dXN4DkID81m1zf+GcSX+bkJxKtHRemYRVzneRfnQkv+qp1DL1PEk61//bVi+rf1n1iyg/+He7lr70hdVNRawbdeqPwKNPtFZ97P+e2d6fdv60Vl66493GBJ/On+X9WSyu/7Ur6rP73/0/lzc0wapVSxfd/lwMR3EC1fgJx3sJ3LndHtK0ez7hVpHPm0CTJsxh4+XK8TtwOU8qM66bpKPxSWX68fHzva7/WqEnf2H4WwdVbnrJC4PflmNCOQm02pWbXM1fXdTaH91a/Ll7a7tWu5uZNxSxjs+6/vfd/cs4pmNfp742vObm79l7eXtp99ZnC6ALlznbulZcSJIUnxjTPJeypePGZdK1+9HRvEllxsvwdJ4MbfOcjiEF/rPuq7PLf/tg8yqtosfgeW1B+v59syg8pA+su2W2M4FoXyiSlK2AKKy83Y0uhftWQNz1L22mY57KZ+NeUqm19z3HVaS2HUVdWAB4FDdt2+NWy5H7//wJOe1BTzuuyqTriW29dDSv6qnU+HgZmtaR1rz3pOXTj0p6kcMh/1d4Qxjr/fsxcBXn3H33pQQcpA8cMhN+sVPZgv6RX8qLAtsoUvXiT/3rmJYkg6C9ZuO21p8Uqf6jqktsCBxVkfkt57Yf2IOdA+lz2pHGPQnodVUmXV8I99LRvKqnUuPjZWia6wx3rV5e/5KkFTlw97/3Y/9cu5f7vOheAPksr2jOfNKNbd8pyuc6/tS/jmlJUupcCex1m35oOw90F4XBKOrBAiBGMaw03cMy0Yu1I417gNTrqky6vpjcS0fzqp5KjY+X8Wzak+5XtdwLRIofuPsvx9299vlesgxegM5WQNQ6zX26d+f9Ex53/et41ku6PvAS29pzRd7rPmr7WQA8S/T2rbuPb1v753KqnanXwDHqdL2uyqTyB7FRy1KpZer5c9KcVwbXP3f/5b7bf66/78+hDF6Aey8+6CdRYC56dsjLpYi7/qUCOp71kqLrnut618b7m38sx4S9BFgAOA43b7cHWRNeo51CO1PSYJFWvF5XZdJ1xM5eOppX9VR2i3fv+r971bL6DVr/Ikvu/rn7j39+9n0u3EhY9GcBpN553wqIu/51LOtXSv1NZL5w8yN2sRwT5GaXEFRs2+2P2ZcqCu1QOjiMS+p1VSZdV+zspaN5VU+lH+9eBLHD2NYarXuRJXf/+9/1ap9A7uVSBi/A3q2ASF7wlbutgLjrX8YpHcv6lZInDOzLq880L5VjAguA4JYHmsfKU6LSGXQg1A6l5+OSel2VSdcVW3vpaF7VU+nHu5/5LYXrX5hx98/df/yzo58JlWV4FkDqf+/FS37stgIacpyXEHf96xg2qJS6Slsba//qtq3No/NS9zTtLLUH4Cv32QOrbSsvAumEfQPBs44RPR+X9Dt00nXFWNVN0tF41VMZj3/W9b9hb+2L/Ze7f+7+458b/Tz4sgxegM4nvTlztQ3s9rx86uOufx3DBpXa1m4ZLIfXuRcEHZCX+qdlZ6kXANOVPR9T1792DgGtHUvjxiX1uiqTrjuIjVqWSi3T/WLWrIsrzbv+ufvn7j/+udHPgy/L4gXY0jCtdmTe5phkfisg7vrX8WtQGW97ObY2ekWt2rxEjsscSrsAENe/PBWqHUkHAukMfpympS31uiqTrjeIjVqWSi3TGHPe6mVTPy1D5+fun7v/+GdGPwtJsixeANkKCEy4PstjQNz1L3bq+DWo7Nb+bi/gvbdsbRb2LZD9tGspFwDi+qlEwRfiHUoHg25xmpa29Dt10vUGsbFbme6X/u5ZtbTeqX8/nSTvOtz9c/cf/8z4nwn/vCxegA6TuekrsrwVEHf9J42H/cb77ew+FWHFBNfftNlO5X2MW6j9pVwAVOvNy8UFJNC082jn6BanaWlLtUVl0vUGsVHLUimu/1o7WCtllCFw98/dv/Rz7f/9yrJ4AWQrIKiEZ7SDYC5r40Hc9S+2JY2H/cZLGX77u29BvfLAmbkPSVoZQ+kWALfeN3ekPAWqja2dRzuGxPtxmpa21OuqTLreIDZqWSoDYy48/sipn2j9iy65++fuP/550c9BL1kmL8DmCxY/ZGzwsSyNBXHXf9I4OGh8Yj8wwYUbfzC3NEv1H5ctpVoAuBdA1E3F3CiuHwWsnUgHBIn34zQtbanXVZl0vUFs1LJEOtf/dx/+h9rntO5Flx/atPO1cien9YyziDMkHi9Bt/4gfeeDf7erHBNDa/FHsrQVEHf9J42Dg8Ynfc5d21fD0Nwg84OOFWWR+ybCMlS4tqt5mXOBv1Lqqp1BO5GeS5ofp2lpS72uyqTrDWKjlvWs63+NvAhE8pch/Mai6pflTk6DskDiFZA+0asfSN/5rYMq+74mrP2oiFK3AlzdWpOuX9z1nzQGDhovdUpqb0lz4+Nh1V2tC+S4TCE2PBa72rdvnzvCPfX5Hq2ldgbtSHou6X6cpqUt9boqk643iI2q677xsK5Mrn/u/vd+tLUvIRfGo0xeANkKiGww0R/Mibv+ZexKGgMHjddxcD5pTLRu4/17DhOdsoRSLADEtRNZc4O776lKw+pgKMfakeaL07S0pdqiMul63ezuofuDH32j9hnJV5bA3T93+dLX9bO0UFkmL4Dw+o3W4kvc76I8IseTCHHXf9KYttD43n0gqFei8G8am21nnphE/cd9zVIsACrPzDWci+dQhasdQc61M80Xp2lpS7VFZdL1utmdpFtxL/qo2eD0Mrn+uftf2N2u9jvk/vzK5AW4pWHm3AOBb3NjzNi3AuKufxnjksa0hcbHx82kPu7Kfu1hS1rniW4ZQuEXABu3zb0utMH7pTH9Rpc47Uya1i1O09KWaovKpOsNYmNkwotPWL5oYit6sXXcgbt/7v6lz+nnaFhZNi/At9bNPBBYc9U4P7dx13/SuDdsfD99QnRCG33461v37LthHCeHcV+r0AuAzc6V4+6Ar3PDYefpTn8g6DS2WxZI0LRucZqWtvQ7eNL1BrDxBw//Q/UTol+WwN3//nevfp/ifGF8yuQFkLHi4NbMh8e5FRB3/SeNe8PG99v33TsRppomuKHRsIWeH6WdC13BX8+0PuTe9X/43op2/+Brp9LOIbp+nKalLfW6KpOu14+NZXT9Cxfu/rn7j38+9LM0rCybF6CzFVAxp7nJcG+HEqgphbjrP2nMGzZeTO+3DzxbzSNe/d+b706pypkptrALAHmaU57qVNJJja8dS9NF34/TtLSlXldl0vX6stGEHymb65+7/+6LXO1PyOH4lM0L8K3zp7e6F4d9SsfQNGTc9S/lJ415w8ZL2YP2f/felPV33re788ZYyV/EUMgFgLj+3bfdN6jrP6nhpUG1Y6lOtzhNS1uqLSqTrtfLRpfvwYd3VMe6hyc2TTpw98/dv/RB/fyMWpbNCyAsf3Nu5sI0twLirv+k8W5U8YP2BxsE081KcJ1wKGoo5ALg13uf4jxCO05Sw0uj+jrd4pLyjzpebVGZVP58Nrrhb64dRm9vrHTv+C5R4O5/uLtb7XPI+TmWzQsgWwG2YuS3Aka+FRB3/ctQlTTejSperjFo/3bvTzl60/a5syRvEUPhFgAbt+/5PXmKUxpLO05So3fT6RaXlH/U8WqvyqTy57PR/bznJaccvuhh0SlT4O6fu3/p7/rZSUuW0Quw5fzp+9xYdM0ox5O46z9pnBt1/EL6h+Sx1l5167bd/2WU9c9KWYVaADSsDUNrr5enOAWwdqCkwaCbTre4pPyjjld7VSaVn2Sjy/fgQzuqE32Tl9g27sDd//x3rdqfkKPhVDYvgHyea/XpC93d8L+N6rMdd/0njXOjjl9o/5etAJd3w6jqnqVyCrUAOOz+1vtcJ/19BawdKKnhRc/X6RaXlH/U8WqLyqTyu9no4lrtyK4tm+tfWHD3z91//DOhn5+0ZBm9AP/0AbPLVsO3j2IrIO76TxrjRh0/TP/Ym9ceu2nb3OlyXKRQmAXApu8/87LARh+JN452oqSBQHR9nW5xSflHHa+2qEwqv5uN7tcsLj/liPp2SStT4O5/NHe12ueQ/fEsoxfg2a2Aa4cZX+KufyknaYwbdbxca9i+7b5SftXtW2dfKmUVJRRiASCuf/fc/5fEVSMNow2tnUjPfSm6vk63OD9fWudqi8qk6/g2miB8pD1Tv1Tiyxa4++fuX/q8fmbGJcvoBRDObivgg26E/akcLyTEXf9J41ta8cP2DVffF1hT+eJC6p3VPIVYALxme/Mv5WlN7Tja0P65xquURvF1usWpftpSbVGZdD3PxlYU2XeceqiZk/gyBe7++7tb1f6EHC2vMnoBZCvABNEZCxln4q5/yZ80vqUVL9cc9jPgltvH3bpt7i+krCKE3C8AxPVvA3uZNIZ2HG1k/1zjVXbL0y1O9dOWaq/KpOvFbQxM8PEyuv6FAXf/3P3HPwv6uRmXLKsX4O51SzbbIPy8sO83xF3/SeNa2vFi67B9Q8pwC6BP3PEj+yI5znvI/QLAve1/g3P9L5GG0A6kjeyfa7zKbnm6xal+2lLtVZl0PU13rv8fP72j/lGxuWyBu//R3s1qn0IOxrWMXgAZa2QrIArMz/odd+Ku/6RxLe34UfVt520+pL27VYhvBeR6AeCeynynu/v/I+2E2oG0of1zjVcp+XydbnGqn7ZUW1QmXU/SXcNFbRucsWal2a31L5Pk7p+7//hnVT8z45Zl9QLIVkAlsH09FR93/SeNaWnHj7KvSFnu5+VP2LRtz2o5znPI7QLgjgd2vcQ9lXmlwPc7jw4CGq/nvozn1bRucZqWtlR7VSZdT2x04ao3L699b+9huf5y9z/YXar2J2Q63MrqBZCtAOcPn/dVuXHXv4xSSWNa2vFy7VH3f3fzeW3etwJyuwBot+tfcG36AmlYv/NoQ2u8nvsynlfTusVpWtpS7VWZdD1x/Teb9YbYWsbA3T93/9Lv9XMyaVlWL4C0waK5ufPcFuyjctwtxF3/SePZuOJH3U9kK8DuaV7drd55icvlAuDWrXPvEBeMQvY7kDa0xuu5LyW/r9Mtzs+X1rnaorLbdVyDRe4Dt/bUo8wzWv8ySe7+935ktY8gs8GjrF6AuxoHP+1a4O3dxqC461/Su41n44yXa43689K29s83bd9zkpSdx7D305Mjy8XlEhrbWXVpY/ody4/Xc19KtTWvpnWL07S0pdqi0r9ep5ms+eTqZbXvdo5L+Ie7f+7+459R/axMWpbZC9D5VoA1N8WHo7jr3x/HJnWeRr/p1NmG12z6oe14o+MM8nCcuwVAa3frGjcEvjDemH6H0sFA4/Xcl1KGr9Mtzs+X1rnaotK/ThBUftacqTXExjIG7v6zcber/RO5f3uU1QsgY9FUa8+58a2AuOvfH8cmdZ5Wf3X1eUnUan8ij2NyrhYAt23b8xZ3z9558lIbU6D7HUrTNF7PfRnPq2nd4jQtban2qoxfzzVUZKxd4174s1NsLGPg7p+7f+n3+vnImiyzF0C2AqJKeLa0T9z1Hx/DJG1S53LttPqLlB0E7TUbt7X+ZO9xfv7mZgFw53Z7iAnMpxStNqac+51K0zRez30Zz6tp3eI0LW2p9qqMX88a89mTl9fuEfvKGLj73/9uU/sIMltcyuwFuOeCmTvlWwHHvKr6OzpGxccwiZvUuVw77c9KJYiuzdtWQFXA5C1IQ0pHUul3Kj9ez30p9da8mtYtTtPSlmqLSr1eFIW/uPZbe0r3qt94v/z2/zK/vO9/zck7Dzo/9RxP4xgCWSHgfi1vzlQr/5EVe8Ztx7vfuGja2uDF4qvS8SsrUsfVtOS4WY/iernxABy/1Dzuvnd5rlTab0DpYBJUarp/rvEqu+XpFqf6aUu1V6Vcz9UsuuvB5hM2sh9YcenTfyD2lTF8e93Mv7vXj95YxrpT5/wQcJ/d692v5v0iPxaPztLbt+4+Xp6KT3ucXGj5Oq6mJduhWbvqdebJ0RFNv6TcLAAExcnLFv29m+ZvlWNtRDn2O4Smabye+zKeV9O6xWla2lLtVSm2/OIJ+52fP94+TI4DE/7tGz9uZzrHJfzTCgL5xcNSvvmwhM2duyrL3b/7VdLLc2f4CAy+ebs9yJrwGikq7XFyoeXruJqOrNx0yuG1b44A5ViLyNUCQMhUp6pnO6Of0EaUOL9DaJrG67kv43k1rVucpqUt1V6V4vq/88H2UrFJQhjYl+9p7vro3rPy/cULUL42z1ON3ee2tHf/taj5afdm1pdKe6U9Ti60fB1XU5CPhdXK+/LUV9XW3C0ATny1+WVkzfulAtqQfofw4/Xcl1KG5tW0bnGalrZUW0S6hum4/lutaFps2hesPbfMWwF4Afb1BA4yRKDMd//y9Lv7ilLnZUBpj5ELLV+6Snx8HeV5YKKz8+b6149O7hYAYvjq5fUvudfhfl0b1O8Ufrye+1LK0rya1i1O09KW8Wvv5/qXhGdDxZlsTHjDioYt5cNweAG0JyCzRMCNI6W8+//KffZAefpd2yLtMXKh5es4P2pZMearq5Yuul3rnzeZywWAQK5U5s5yovPAhd8ptJE1Xs99KeX4Ot3i/Hxpneu1fde/xMeDCezvVhaVdysAL0C8N3A8aQJlvvufrravUtd/WuPisOVK/9BxfpTSjcOPV4Ja58H0SffBhV4/twuAE18/81gYmPOl4n4H0UbWeD33ZTyvpnWL07S05d5rJ7j+JTEWWpF9f1m3AvACxDoChxMn4MaZUt793/JA81hr22t7jbNpj5u9ylf7Ri3de2nOlG+nTbwDDmFAbhcAUudVy+obXCP8s98BtKE1Xs99KWX4Ot3i/Hxpncu1k1z/khYPna2AsHJtWbcC8ALEewPHkyJQ1rt/cf1X27bz/n9/DE1rfFxouWrfKKW7+fzaqmWLOt9Im1TfG8V1c70AEACm1X6nCYIdcqwdRBvaP9d4ld3ydItT/dSl99S/2DJfMDY6NKzu+vB8OkVNwwtQ1JbNV73cGFPKu//pyp6PqetfWyz18dHdrkkY9Do6D4xKius/nKq9R+udZ5n7BcCq/3rAz50X4EPxjqENrR1Fz33ZLU+3OD9fGueuIbo/9d+rdxl73jFXzi7vpVbEdLwARWzV/NSprHf/Hdd/YN4lLZXGWDjKcqUsnQdGJd1t51/Jt9Gk7LyH3C8ApAEeWlr7vFuV3aOdURvaP9d4lZLX1+kWp/ppyn5d/2KfF6q2bW8s41YAXgCvJ3A6VgJu7Cjd3f/Nj9jFlSj4goJOc0yUawxbvo7vo5Ly7bO9L6RTAvmWhVgANIyJTMu+wwbRrDSHNrZ2Hj33pej6Ot3i/HyjPu/11L/YNF+QrYCgunPdfDpFTcMLUNSWzXa9ynr3X59tXmFt9AppnVGPg6MuT2zU8X1E8snQNs+RcosSCrEAkMaQrQD3qtzOfrg2tnYoPfel5PN1usX5+UZ5vmDXvxgaC6EJLjhm/a7Xx6JKcYgXoBTNnLlKunGjdHf/t21tHt0ObOcnf6VBRjkOplGeju2jkoE17z1p+fSjmeuMQxhUmAWAMHj48Oon3FbAd5WHdtCkDiB6vk63uKT8w8bLtYZw/Uv2eKi6lfmNb27YejyyDMd4AcrQytmpYxnv/m/+nj3A3S1dp60w7NiXdn6xU8f2UUj5tpm8gE7rXxRZqAWAbAVExpzhviLX+cEY7WRJHUAa0dfpFpeUf+j4AZ/679XpjAle86v67Ad76RUtHS9A0Vo02/VxY0bp7v6r9ebl6vqX1hl67HMlpFmOlK1j+7BSvmUW2tbpHYML9qdQCwBpm1OWLvp/XNNfIsfaSZM6QDedbnFJ+YeJH5XrX+zdL9jow2XcCsALsF8v4CQlAmW8+7/1vrkjjd3r+h9mzJMmGVd+uZaO/8NKd/d/XtFc/8JHQuEWAFKpg3ZWP+Ze1HC/drakDrAXwF4EqtMtTtNGKUfo+heT46GUWwF4AeJdgOO0CLgxpVR3/zdttlOmYm509+tVYTrKMTDN8qRsHf+HkW4euVteOCflFTEUcgGwcqV7PVBoT3PddU4aLakDSJp2aNXpFqdpo5LDPvUvNs4XyroVgBdgvl5B2rAEynj3/4KZ5qXu21WvFHajGv/GVY6O7QuV8q0yl/edw/abLOcv5AJAgJ9y+KKHIxtcKcdJHUDStDOqTrc4TRuFdMAX9sIfMWyA0LbRxSvW73jVAFlyr4oXIPdNmOkKuLGiVHf/4voPjN33xrtRjH/SwOMqR8f2hUrn+j9/9bKpn2a6Uw5pXGEXAMKlPVO/1L244WE5TuoE2hk1XXT9OE0bVkrZKbr+pfh9wT0IWTc2+ErZvhWAF2BfF+BghATKdvfvXvhTd67/69X1P+zYN+780vQ6ji9EyrfJ5AVzI+xCmSyq0AuAUw81c+591e9wlXSy+1On2jE1XVrJj9O0oeWIn/rv1aNkK+A/a7ve20uvSOl4AYrUmtmpixsTSnX3X5udu8S5wA/VFhh67EsYf9MqV+zWcXxQ6Z76n621gzXyrTKtf1FloRcA0minLKv/0IlPybHfESROO6CmdYvTtGGkAz0W17/YHw82sB8t21YAXoB4D+B4WAJlu/vfuG3udY5Z53fuhxnzhPuk8su1dWwfVMoL5Y4/cuonUkbRQ+EXANKAzen6xW4r4BG/I0iadlBN6xanacPIcbn+xf546GwFBMF1jYYtRVtL3fECxHsAx8MScGNEae7+xfXvnnz/srv17bxQbJgxT7hPKr+O64NKZ/IPHv6H6ieG7TN5yV+KSUG2AtwP5pzhKutuDp+b9OVYO6h2lG5xmrZQmfZT/2LzfMG5tI7cUrKtALwA8/UI0volULa7/8ozcw11/S90vJt0PmlbHdcHke5maXfNBqc3GsV3/Wv/L8UCQCq7+sj6fdaYa+RYO4Uca2edL07TFiId4Im4/qVu8eC2Ai57wyU7Ol/niccX9RgvQFFbdrz1cuNDae7+xfUf2uD9Sngh453knXQ+HdMHlZEJP3LC8kWPaP3LIEuzAJDGbM3VLjQm7OztaOfQzqrnoufHadqgUsqalOtfrh0PshVQCYMby7QVgBcg3gM4HpRAme7+N2+21UrQeeFPx/U/6FiXFX1pYx2/B5HO/gcf3lG9atA+knf9Ui0ATj3KPON6x9p4J9GOq51F0vw4TRtYjvmp/16dUbYC7qnuLNTPWc5XZ7wA89EhrRcBNw6U5u7/iZm5v3bj22uVycBjnRtYJUw6n9ig43e/0mVpuV85PK3hXiAn+csUSrUAkIY9eXntHrfS7WwFyLl2WO0s3eI0bRCZFde/1CceIhNc/oZLnur8nnc8vqjHU01zudzJFbV+1CsdAtJnKs2w8yKxdK6QnVI33r/nMPdz4ueLRYOMcVnUF5t0TO9XGhte8uy3xSR7qULpFgDSunPTtQuCoPIzOdYOr52lW5ymDSKz4vqX+sSD2wqYDsNqabYC7mpM/8K18fVxBhxDoBcB6TP/0jjgf/fSy3t6x/UfPef6H2SMk7pnTV/H836lvCiuNVO9Iu/tuFD7S7kAcN8K2BlVbNetgHin7rcT+XqTfuq/V2cIg+gP7q3OFvod13EGeAHiNDjuRaBMd/+/nml9yL0s7XBh4o9jeTuXOgy4IGlFkT1dviUmecsYSrkAkIZ+8+trdxtTuU4bXTuOnGvH17hBpAOaiaf+tV5Jsm2iq8uyFYAXIKkXEN+NgPv8l+Luf+P2Pb8XmuhCZTDIOCd5sqav43a/MjDBx085or5d619GWdoFgDR2K6h8wL304lE51k4jx9qxNa5fKXmz6voX2+JBtgIqldq1ZflWAF6AeOtznESgLHf/4vp3vxXyJRuEU8Ki3zEuq3pSBx23+5HO9f/jp3fUPyr5yhxKvQA4dal5qh2EZ0oH0E4jx9rJNa5vmbGn/qUu8wVj28eUZSsAL8B8PYE0JeA++6W4+39iceuDrs5H9D22uRFSQlb1xTYdt3vLIGrb4Iw1K81uyVfmUOoFgDT8Kcuq/7NizFflWDuOdnI970c6kLlw/Us940G2AlZc/szL4nFFPcYLUNSWHU29ynL3L67/ShBdLNT6GdvyoCc26rjdSwbWfPLNy2vfkzxlD6VfAEgHiNq197itgF9qx9EPhZ73I/Pi+vc7vGwFGGtvKMNWAF4Av/U5jxNwn/vC3/03rA1Da693i52O67+fsU0YZV1Px+xeUr791ZypNeLtXuZjFgCu9U8+wvzK2KjzrQDpDNrZe3UmTc/6U/+9OrhsBWypz67ppVeEdLwARWjF0dehLHf/h93fep8NzO8LQR2/8i6lLjpmzyfFS+tudtbIt8AkD0H6AKFD4KTlU3c6L8DX5EQ/EPN1JtGTdOlUdz3YfKLViqYlLq/BPRB09XGN2d/Oq/392o0XoF9S5dJzn/nC3/2L6z+w0UcGGd+kF/QzDk5ST66tdZpPut+C+ay8CE70CXsJsACI9YSqqZ3TbSsgqVNJ1ry6/mPV7hyaIDpodz34mzJsBeAF8Fu/3OdluPtX1791W346oSeNa3mLl96rdUqW5metA2oXlbunP7/2LABiTI5fah53v5p3rkYld6Znn4jN2VP/Wq8kKVsB99R2vTUpvSjxeAGK0pKjqYeb8Ap/9//q7c13+67/nuObm1YlZF2v14JF6mBDexaufyGxf2ABsD+P4ORli/7eOZRu7dWpiuL696rvTs1nVlxZ/K0AvADPb/kyxpTh7v/Wbbv/iwnsem1fndB7j3F7p4es62l9kqSr+xdPObz2Ta0/8jkCLACeY7HvqFqZe7frTE9KRFKnKorrf1+lnz1wvxh4kGm19/1Ykp9elHO8AEVpyeHq4Sa3Qt/9i+vffaZvFNe/ktIJPWlsy1u81Evr1EU+ZqqL3G+/ELoRqHaLLHvcia+feezWrXPvDYy9STqUfCDishUFv7jzwbmlxeQUuTdkhiesXL/zzzavW/w/ilnHvbVy70K7PGiZQ4pcR+o2P4FOH5hfJdeph93fPMe5/o+WSugYphO8nuddSt20Tr5sB2btKa8znZs50SPsT8AtDglJBDZt2/M/3S7YcfF0cf3f+UD7X3/+ePuweHzRjt0rQp9ybvJXyZ1y0epGfSBQBgKbvv/My2w1fNjd/S+J11cn/Hhcno+1Pr503/m/afWy6ml5rlvatrMFMA/hsNI6wyV3Vo/SuSQU1fXfqVzsT+dbAbXibwXEqswhBApFwFYrG3Ty1/FLKqh3yRqXd6n1iUtXp8fazcp5hWrQFCrDAmAeqLIVEBrzIVGRzpX3F/7MU9WuSXu3Anac2jWRSAhAILMENm2bc65/+0c6uevkKAb7cZqWVxmvk9YtMNHZpx5lnshsA2XEMBYAWjkU8wAAHcVJREFUPRpi1dL6F0xg/tmBKsQLf3pU10t2vxQehNcc1djxm14CpxCAQEYJdFz/gb1MzNNJfd/E2CVO0/Iq4/WU+spvu6xauuh2iSfMT4AFwPx8Oqk2iM78+ePRt4q+798NhXsE8pBFteC6bmnEQQAC2SPQzfWvCwGxVid6jcu7jNfJfeXvcbOo9v7stUo2LWIB0Ee7rF429dOv39+6sw/VQqq4J0VPWHnZjpMLWTkqBYECEXCu/3eK61+rpJO7TvoS78dpWl5lvE7OW3vmia82v9T6I+cnwAJgfj77Uo9uLf6ce0nOvfsiSnZgbPhFtgJK1uhUN1cE7nhg10vcpt2VYrQ/meukH0/TuLxLrat7Zunrq5YtujVXjTZhY1kA9NkAjYaJWlFbvhWwu88sBVOTrQDz2YJViupAoDAEonb1eleZF0iF/EldJ8l4msblXUpdxfVfmaq+U+pH6J8AC4D+WQX3XnzQT1xXK+0PSrgP2alsBQzQYVCFwJgIONf/6fF3lviTui4IxBxN07i8S6mTe1j5fbj+hcRggQXAYLyCFc2ZT7r3An5nwGyFUWcroDBNSUUKQuBZ1/9VUp2kyV3jRUcnfI3LvwzuWr2s/mWpG2EwAiwABuMVyFaAC+JqKu1WwFStcvWA2FCHAARSItBs1z/vit7P9e9P6jrpiwmapnE5l0+6XzF9V0poC18sC4AFNPG9Fy/5cWDCfb+utYAicp6l/dZjL9t1Us4rgfkQyD0B95sl73Bv7TxRKqITuxz7k3q3NI3LswwDc95Jy6cflToTBifAbwEMzqyTY0XD/YxIbcf33ddOCvqjQPODsTb4j3orOvSbjYN429b8qEiFQCoEOq7/dvVHbu//hf4FZFKXRYDKeHq3uHh6Xo7d5H/3qmX1P8yLvVm0Ew/AAltlS8O0gkp4hvye+AKLyHU2Y4IXz1UrnX3HXFcE4yGQUwKtdv0zOvn7d/FF9wC4O9dZV0ee+h+y77IAGALg5gsWP2Rs8LEhish1VmPsGrYCct2EGJ9TArdum/sL5+hfrRN/0oTvp0t1/Tg/bx7OjTHnyQvactp8mTGbBcCwTdFa/BHnDn9o2GLymt89EPmFP2489TwXZF7rg90QyDqBO7fbQ9y+/yfETp2sdVJXqfEqNX6+PKqTdem+jnyP/EZL1tspD/axABiylTpbAVXzdldMa8iicpldtgKa9fCKXBqP0RDIIYE527rWBuYQMV0na53oVWq8So2fL4/qZFmK67/WDtbmsNkyaTILgBE0i2wFBNaUdz/cBmtXXL7zTSNASREQgMA8BG7btuct4vpXFZ2sdaJXqfEqNV7y+XGalnUptruFz7rjj5z6iRwThifAAmB4hp0SDm7NfNia8JERFZe7YkxkNxzX+NWBuTMcgyGQEwJ7Xf/mU2KuP1nrpK4yKT2eV3XzIKU+zvX/3R99o/aZnDRXLsxkATCiZrqlYeZMxZzmvhXgHswtX3CuuZfurk1dXr6aU2MIjIdAyzY/537s50VyNX/STprwVU/T43k1LutSbHbPPOyuWvMueRGbnBNGQ4AFwGg4dkr51vnTWwOzd4U+wmJzU5T7kP4lWwG5aS4MzRGB27fuPt5N/n+aNFnrRK/S19N4qbKmaVzWpdgcmfDiE5YvKq2HVRikEVgAjJiqmZtZ5/ap/m3ExeanuCj4PFsB+WkuLM0+gdt+YA9um8oGsTRpstZJXaWvp/HxMjQu69LZ/IOH/6Ha+daD2E8YHQEWAKNj2SnJfStgt62Gby/rVkAY2Je7rYBLR4yV4iBQWgJhpflpN/W/WAAkTdZJE77qa3q8DI3LsnQT1FzNBqfj+k+n+7MASIHrlvOn73MfvGtSKDoXRboB5exj1+9YmQtjMRICGSYgrv+2tX+uJiZN1jrRq/T1NF7K0TSNy6oUW00QfgTXv5BIJ7AASIdrUKtPX+jW66V8U1XFVbwdmBve+HE7kxJeioVA4Qls+qF9gftmUedGotckrZO6Sl9f4wWapmlcVqWz88EHd1ZL+6bVcXRwFgApUf6nD5hd7qG4M1IqPvPFylZAc26WbwVkvqUwMLMEmk33lT/zUrGv1yStk7pKX1/j42VpXEZlqx3ZtY2V7jdXCKkRcN/eIqRJ4JjLdmxwb68o5Zur5DkIY+3RWy468DtpMqZsCBSNwMZtrT8xQfsbWi+ZpGVST5Kqp9LX03iRmhaPy9yxDS5ZvXzRX2fOroIZhAcg5QZdNDd3ng2CUv5etWwFGBPe4H46eSplzBQPgcIQuHm7PagSRNdKhWSyluDf0fvnqqcyKT1elupmTbp9/x8/vat+Wafi/EmVAAuAVPEGwV2Ng592kOW3AkoZ3Nu7ftfWd60vZeWpNAQWQKBi25903/nfz/Xfa5JOmvA1n6aLOX6cpmVBurGyFUX2bWtWmt0LQEeWAQmwABgQ2ELU7163ZLO15qaF5C1EHmvPXXHp039QiLpQCQikSOCWB5rHBkF7jVxCJ2o57jU5q65KX1/j42VpXFak2ObCJ045or597yF/0ybAAiBtws+WP9Xacy5bAWwFjKm7cZkcEvjKffbAatvuu1HQSVyq0muSVl2Vvr7Gx8vSuCxIsVdc/81mvSE2EsZDgAXAeDh3tgKiSnj2mC6XucvIVkBY3fXhzBmGQRDICIHpavsqdf0nTeBJk3UvfU2XqmoZGjdpuRe/c/wHwdpTjzLPZKQ5SmEG3wIYczMfs372y87F99YxXzYTl5NvBVSqlf/a+c2ETFiEERDIBgFx/Yft6F+SrJFJWibuJOnn8/Xi6ZoWj5v0cWjN1auW18+btB1luz4egDG3eK3ZfI+1wX+IU69sQb4VYNv2Rr4VULaWp77zEbj5Ebs4bJvrVEcmaAkq5Vjv2pOk6qr09TQ+XpbGTVoGQeVnzZlaQ2wjjJdA+Wah8fJ93tW+2TjoiTAMz5KPdBmDscGhQXXnujLWnTpDoBuB+mzzCucVfLmm+ZO3xPeapP08vr6mx8vSuInLil176qFmp9YfOT4CLADGx3rfle7+0Mzt7iO9cV9EqQ6cG9MEFxxz5ezyUlWbykKgC4HbtjaPbge282yQP2nruWTrNUmrrkpfX+PjZWncpKTYUgnMNW9+fe1uOSaMnwALgPEz71wxaradFyB8fEKXn/Rlq7bZ3vDmhq1P2hCuD4FJEbj5e/YAd2u/z/XvT9p6Lvb1mqRVV6Wvr/HxsjRuEnKvfZWfzU3XLpgUf64r/YowEQJbGgc+bgP7nolcPAMXNSZ4zX9Wd16cAVMwAQITIVCvNT9ubfQKubg/YfvnvSbpXvqaLtfSsjRu3FJtsKE9C9e/0Jhc4FsAk2PfufIx63fd6j6SJ0/YjEld3v3QR3jEt9bNPDApA7guBCZB4JatzaOqJvq2exKor5swmaRl4k6Sfh18vXi6psXjxn1sTOW6k5dW3znu63K9/Qn01fn2z8LZKAk0g+Ac97F2WwGlbIqquwO6ka2AUfYoyso6AXH9V8LgSzr5y4QsIUlKmt61J0k/r6+n6fGyNG4C8jFTqXxQbCFMlkApZ53JIt//6sc2p3/pXpLzfvmIlzHIVsCv6rMMBmVs/JLWuVpvXq6uf0HgT9b+uej0mqT9PL6+psfL0rhxy8BEZ696nXlSbCFMlgBbAJPlv+/qKy99+i5jzJv2RZTowL0gaM51xMO3rFvyryWqNlUtIYFb75s7MqxYcf1XZZKWybeX7AeTX4afR9Pj8Ro3ThlY+zfuhT/viNvB8eQI4AGYHPv9rjzVqq61QfjUfpElOXEvCKq79wN8ha2AkjR4SavpXvhTNxVzvUz+gqDfO2/RlUl6PumX5etrerwMjRuXDAL7y2ar9r5ORfiTCQIsADLRDPKzwdO/cJNgab8S0/lWQG3XezPSHJgBgZETqO1qXmaD6FAp2J+ge533mqT9/L6+psu1NU3jxiXdAuBs967/J8QGQjYIsADIRjt0rHhDa3qDtfYfM2TSWE1xX4v86Ir1O1411otyMQiMgcDt2+eOCMxzX/vVSbhf2WuS9svx9TVdqqppGjcO6X7r72urli1y33giZIkAC4AMtUajYSJbqckLgkr5WszOVkAQXNdoWPplhvolpgxHQFz/kTU3qOtfJ+B+pVy91yTtl+Xra3q8LI1LW7qHnB8Pp2qlfefJcL0n3dwMtOnyHbj0LRce8HP3hHBp35XvfhP8yC1sBQzcb8iQXQKVZ+Ya6voXK/3Jude55Ok1Sftl+PqaHi9L49KWQWD+6sRXm1/KtQnZIsACIFvt0bHm6Nbiz7kPzb0ZNG0MJrlfRA/sZW+4ZMcrx3AxLgGBVAls3Db3utAG7mu+vSdxf9LWc8nba5JWXZW+vsbHy9K4NKVb0H/95GWL/l6uS8geARYA2WuTQLYCorDydvf1uNkMmpe6SbIV4F6UciNbAamj5gIpEhDXv9v7/pJz/Xd+88KflPs9FxN7TdJ+Wb6+psfL0rgU5ZOVypzb0iRklQALgIy2jGwFmMD8dUbNS90s914AtgJSp8wF0iRQ2TV3kXP9HybX8CfkQc97TdJ+eb6+postmqZxaUnnxXz3ia+feUyuScgmARYA2WyXjlUrmjOfdK8J+U6GTUzVNPlWwBsuearzYympXojCITBiAhvv33OY+9nr83Vy1Ul3oVLLSZJ+ub6epks1NU3j0pBuYrlr9bL6l0eMleJGTIAFwIiBjrK4zlZA1DrNlbl7lOXmpSy3FTBdCcO/ZSsgLy2GnUJg82ZbrUTmRnH96+Sqk+5CpZaTJP1yfT1NF/s0TeNGLZ33boex7XfJtQjZJsACINvtExzTPvD/iwLTyLiZqZknWwH3VHeek9oFKBgCIybw65nWh9yjrIdLsTq56qS7UKnlJEm/XF9P00dpk5bpS7d1+d6Tlk8/OmKsFJcCATe+ErJOYEXDVk1tx/fdB2tp1m1Nwz55GNJG0Wvvvfign6RRPmVCYFQExPVfiYJt+uCflisTskyUC5VaTpL0y/X1ND0er3GjlO5tf3evWlb/w/h1OM4uATwA2W2bfZZtaZiWDcwa+dGcfZElOpCtgLBS28BWQIkaPYdVjbv+1XyZXCX4d8mDnms5SdIvz9fTdLFF0zRuVNI98DjrynqnXIOQDwIsAPLRToH8Ul7FhJfIx7eMIbTtFfdWZxlcytj4Oanzk0taFyS5/nXSXajsNUn75fr6mi4oNU3jRiXdr5met3rZ1E9z0lyY6QiUczbJadMfPDf9MRu0t+fU/KHNbpvoar4VMDRGCkiBwMbte37PxN7g6U+yer5Q2WuS9sv19TVdqq5pGjcK6V73+92HDq99MQW0FJkiARYAKcIdddG3NMxcUAnPcOW2Rl12HsrrfCugUruWrYA8tFZ5bBTXv/slzy+5n/OeklrrBCvHOrlq3EKllpMk/XJ9PU0fpU1apnuQbLbWDtY0jHGPPhDyRIAFQJ5ay9m6+YLFDwXWXJUzs0dmrvt60TFsBYwMJwWNgMCvl7TOc8Uc4U+6UrROkn7aoOdaTpL0y/P1NH2UNmmZ7vmkdccfOcUDugI3Z4EFQM4aTMw9uDXzYWvCR3Jo+khMtia44g8bz/zOSAqjEAgMQUBc/6GNPixF+JOuxOkk6acNeq7lJEm/PF9P00dp07Nl/uBH36h9Rsol5I8AC4D8tVkgWwGmYk5z3woopcvNBNFB7bq9ia2AHHbeApncsDYMrb3efQ47rn9/0pWq6sTrpw16ruUkSb88X0/TR2mT+xzurtngdHlhWYGatVRVYQGQ0+b+1vnTW6uhuTqn5g9ttmwFbKnPrhm6IAqAwAIJHHZ/633O/f37kt2fcPVcJ149X6jUcpKkX66vp+liq6Zp3EJlZMKPnLB8UWk9kcIy74EFQI5b8IV7Zi4q81aAe/Dq6uMas7+d4ybE9JwSuPO+3a8IbPQRNV8nVV/q5OrHD3qu5SRJvzxfT9PFXk3TuIVIV8aDD++olvZZJG33vEsWADluQdkKsBVzRpm3AnZXW9fluAkxPYcExPXfrATXud+6nxbzdUL1paTp5OqnDXqu5SRJvzxfT9NHY1Mw1w6jtzdWmlJ+G0kYFiWwAMh5S245f/o+9+G+JufVWLD57uUjb1q5fufbFlwAGSEwIIFXb2++27n+j/YnWf9citWJ108b9FzLSZJ+eb6epo/CJrf+WX/K4YseHhAb6hkkwAIgg40yqEm1+vSFbkD6t0HzFUfffGbFlWwFFKc9s1uTTd9/5mXupTcfFQv9SdY/Fx2deP20Qc+1nCTpl+frafqwNjmvx8OtmeoVUg4h/wRYAOS/DYN/+oDZFQb2zAJUZUFVkG8FmFa7tF6QBUEj08AExPXvXvnjXvgTLJHM/iTrn4uOTrx+2qDnWk6S9Mvz9TR9SJtaUWRPP/VQ90IyQiEIsAAoRDMGwd3rlmx2byL7fEGqM3A13NvITnBbAX82cEYyQKBPAq/Z3vxLcf2Luj/BJp3rxJuU3m+8lpMk/XJ8PU0X2zVN4/qVgQ0uP+WIemlfRS7sihZYABSoRd1WwAejwPysQFUaqCpucP70f1u/67cGyoQyBPogIK5/G9jLVFUn0V5SJ9deer3StZwk6ef39TRd7Nc0jetHOtf/j5/eVd9Xf+WAzDcBFgD5br/9rJetgEpgT98vskQn7hfXD6kG0bUlqjJVHRMBW61sUNe/TqC9pJimk2sv3V7pWk6S9PP7epq+MJuCqG2DM9asNLvHhJvLjIkAC4AxgR7XZTpbAdbcNK7rZe06e7cCdpyaNbuwJ78ENm2fO8vd/f+R1sCfXJPORV8n3iSdfuO1nCTpl+PrafpCbHJ5rnrz8tr3JC+hWARYABSrPTu1mWrtOdfdrTxawKr1VSXnrrzmqMaO3+xLGSUIzEOg4/q39kpR8SfVXueSRyfeXrq90rWcJOnn9/U0fVCbjAl/0mzWG5KPUDwCLACK16bBXY2Dn44q4dkFrFqfVYoOWVQzn+1TGTUIJBOohp9X178/qfY6l0J14u2l2ytdy0mSfn5fT9MHscktXyJrgzWnHmWeSQZESp4JsADIc+vNY/s9F8zcGQSVr8yjUugk913tU1detuPkQleSyqVKYNO2Ofc8TXicXMSfUPs914m3X/0kPS0nSfr5fD1Nl7pomsYlSWvMZ1cvq31X8hCKSYAFQDHbtVOrWrP5HreC/48CV3HeqhkbfpGtgHkRkZhA4I4Hdr0kCuxVOlkuVOrkutD8mk/LSZKqp9LX03iprqZpXHdZ+VnrgNpFCXiILggBFgAFachu1fhm46Anomr4zm5p5YiLDpmqVUr7i4nlaON0ahm1q9e7kl8gpeuEOaiUvDq5DprX19dykmQvfU3vx6aOTsWudS/82SnHhOISYAFQ3Lbt1Ey2Atz3428ueDXnqV77rWwFzIOHpOcRuHXr3DvcD9x3XP+SmDTp9oqXvDrx9tLtla7lJEk/v6+n6f3Y5LbPvvjm19fuFl1CsQmwACh2+3ZqZ5uReyAwfLwEVe1exSi45o8bT72weyKxEHiOgLj+A2M/KTH+JDrouZShE++geX19LSdJ9tLX9F42hYF51FQXXSB6hOITYAFQ/DYOtjQOfNx9j/k9Jahq1yq6rzK9eK5a4bfLu9IhMk6g2a7L67Q7rv+kybbfeClXJ95+8yTpaTlJ0s/n62l6L5vaoVm76nXmSdEjFJ8AC4Dit3GnhpvXLf4fbji6rSTV9arpXpBszJpjL9t1kpfAKQT2Ebh129xfuB+WOlEi/Al0oec68S40v+bTcpKk6qn09TRe6qZpGqfSfWvoplMOr31TdAjlIMACoBzt3KllMwjOiUq7FeCGvSj6AlsBJerwA1T1jh/ZF7lf1PyUZtFJclipk+uoytHyfOmXn5Qu9dO0eB4X91hYrbxP648sBwEWAOVo504tv71u5t/dAz7vL1GV96uqMQFbAfsR4UQJtHa3rnEP/nWeE9EJclgpZeskO2xZWk6S9Mv39TS9m00dBiY6G9d/h0Sp/rhXpxPKRmDl+h13yDvzy1ZvrW8UmuO2XLj4H/UcWW4Ct23b8xb3tr+/S4OCTLw6GQ9TvpaTJP2yfb14uqZpXMWYr560tP5WPUeWhwAegPK09b6atoLwTBuET+2LKNmBiewGtgJK1ugJ1b1zuz3EBKbj+peJUcKopJSlk/+wZWo5SdIv39fTdN8m5xF8vBLUzpV4QvkIsAAoX5sHshVgTVDerYAgeGmzHl5Rwqanyh6BOdu61r3x70US7U+aw55LmTrxDluWlpMk/fJ9PU33bXKLnzOPX2rK+xVhAUKAAAQgAAEIQAACEIAABCAAAQhAAAIQgAAEIAABCEAAAhCAAAQgAAEIQAACEIAABCAAAQhAAAIQgAAEIAABCEAAAhCAAAQgAAEIQAACEIAABCAAAQhAAAIQgAAEIAABCEAAAhCAAAQgAAEIQAACEIAABCAAAQhAAAIQgAAEIAABCEAAAhCAAAQgAAEIQAACEIAABCAAAQhAAAIQgAAEIAABCEAAAhCAAAQgAAEIQAACEIAABCAAAQhAAAIQgAAEIAABCEAAAhCAAAQgAAEIQAACEIAABCAAAQhAAAIQgAAEIAABCEAAAhCAAAQgAAEIQAACEIAABCAAAQhAAAIQgAAEIAABCEAAAhCAAAQgAAEIQAACEIAABCAAAQhAAAIQgAAEIAABCEAAAhCAAAQgAAEIQAACEIAABCAAAQhAAAIQgAAEIAABCEAAAhCAAAQgAAEIQAACEIAABCAAAQhAAAIQgAAEIAABCEAAAhCAAAQgAAEIQAACEIAABCAAAQhAAAIQgAAEIAABCEAAAhCAAAQgAAEIQAACEIAABCAAAQhAAAIQgAAEIAABCEAAAhCAAAQgAAEIQAACEIAABCAAAQhAAAIQgAAEIAABCEAAAhCAAAQgAAEIQAACEIAABCAAAQhAAAIQgAAEIAABCEAAAhCAAAQgAAEIQAACEIAABCAAAQhAAAIQgAAEIAABCEAAAhCAAAQgAAEIQAACEIAABCAAAQhAAAIQgAAEIAABCEAAAhCAAAQgAAEIQAACEIAABCAAAQhAAAIQgAAEIAABCEAAAhCAAAQgAAEIQAACEIAABCAAAQhAAAIQgAAEIAABCEAAAhCAAAQgAAEIQAACEIAABCAAAQhAAAIQgAAEIAABCEAAAhCAAAQgAAEIQAACEIAABCAAAQhAAAIQgAAEIAABCEAAAhCAAAQgAAEIQAACEIAABCAAAQhAAAIQgAAEIAABCEAAAhCAAAQgAAEIQAACEIAABCAAAQhAAAIQgAAEIAABCEAAAhCAAAQgAAEIQAACEIAABCAAAQhAAAIQgAAEIAABCEAAAhCAAAQgAAEIQAACEIAABCAAAQhAAAIQgAAEIAABCEAAAhCAAAQgAAEIQAACEIAABCAAAQhAAAIQgAAEIAABCEAAAhCAAAQgAAEIQAACEIAABCAAAQhAAAIQgAAEIAABCEAAAhCAAAQgAAEIQAACEIAABCAAAQhAAAIQgAAEIAABCEAAAhCAAAQgAAEIQAACEIAABCAAAQhAAAIQgAAEIAABCEAAAhCAAAQgAAEIQAACEIAABCAAAQhAAAIQgAAEIAABCEAAAhCAAAQgAAEIQAACEIAABCAAAQhAAAIQgAAEIAABCEAAAhCAAAQgAAEIQAACEIAABCAAAQhAAAIQgAAEIAABCEAAAhCAAAQgAAEIQAACEIAABCAAAQhAAAIQgAAEIAABCEAAAhCAAAQgAAEIQAACEIAABCAAAQhAAAIQgAAEIAABCEAAAhCAAAQgAAEIQAACEIAABCAAAQhAAAIQgAAEIAABCEAAAhCAAAQgAAEIQAACEIAABCAAAQhAAAIQgAAEIAABCEAAAhCAAAQgAAEIQAACEIAABCAAAQhAAAIQgAAEIAABCEAAAhCAAAQgAAEIQAACEIAABCAAAQhAAAIQgAAEIAABCEAAAhCAAAQgAAEIQAACEIAABCAAAQhAAAIQgAAEIAABCEAAAhCAAAQgAAEIQAACEIAABCAAAQhAAAIQgAAEIAABCEAAAhCAAAQgAAEIQAACEIAABCAAAQhAAAIQgAAEIAABCEAAAhCAAAQgAAEIQAACEIAABCAAAQhAAAIQgAAEIAABCEAAAhCAAAQgAAEIQAACEMgMgf8fxEKdd70Zuw4AAAAASUVORK5CYII=;" vertex="1" parent="1">
          <mxGeometry x="287" y="258" width="40" height="40" as="geometry" />
        </mxCell>
        <mxCell id="_v1DKOq9-sfsuuMIZ3_m-47" value="Identity-aware&lt;br&gt;Proxy" style="text;html=1;align=center;verticalAlign=middle;whiteSpace=wrap;rounded=0;" vertex="1" parent="1">
          <mxGeometry x="243" y="298" width="130" height="30" as="geometry" />
        </mxCell>
        <mxCell id="_v1DKOq9-sfsuuMIZ3_m-61" value="" style="endArrow=block;html=1;rounded=0;entryX=0.718;entryY=0.529;entryDx=0;entryDy=0;entryPerimeter=0;exitX=0.718;exitY=0.353;exitDx=0;exitDy=0;exitPerimeter=0;endFill=1;dashed=1;strokeWidth=2.5;" edge="1" parent="1">
          <mxGeometry width="50" height="50" relative="1" as="geometry">
            <mxPoint x="636.04" y="340.02" as="sourcePoint" />
            <mxPoint x="636.04" y="399.86" as="targetPoint" />
          </mxGeometry>
        </mxCell>
        <mxCell id="_v1DKOq9-sfsuuMIZ3_m-62" value="" style="endArrow=block;html=1;rounded=0;entryX=0.718;entryY=0.529;entryDx=0;entryDy=0;entryPerimeter=0;exitX=0.718;exitY=0.353;exitDx=0;exitDy=0;exitPerimeter=0;endFill=1;dashed=1;strokeWidth=2.5;" edge="1" parent="1">
          <mxGeometry width="50" height="50" relative="1" as="geometry">
            <mxPoint x="307.5" y="338" as="sourcePoint" />
            <mxPoint x="307.5" y="398" as="targetPoint" />
          </mxGeometry>
        </mxCell>
        <mxCell id="_v1DKOq9-sfsuuMIZ3_m-69" value="User" style="sketch=0;outlineConnect=0;fontColor=#232F3E;gradientColor=none;fillColor=#232F3D;strokeColor=none;dashed=0;verticalLabelPosition=bottom;verticalAlign=top;align=center;html=1;fontSize=12;fontStyle=0;aspect=fixed;pointerEvents=1;shape=mxgraph.aws4.user;" vertex="1" parent="1">
          <mxGeometry x="465" y="46" width="30" height="30" as="geometry" />
        </mxCell>
        <mxCell id="_v1DKOq9-sfsuuMIZ3_m-70" value="Internet" style="image;aspect=fixed;perimeter=ellipsePerimeter;html=1;align=center;shadow=0;dashed=0;spacingTop=3;image=img/lib/active_directory/internet_cloud.svg;" vertex="1" parent="1">
          <mxGeometry x="455" y="137" width="50" height="31.5" as="geometry" />
        </mxCell>
        <mxCell id="_v1DKOq9-sfsuuMIZ3_m-72" value="" style="endArrow=none;html=1;rounded=0;exitX=0.75;exitY=0;exitDx=0;exitDy=0;endFill=0;shape=wire;dashed=1;fillColor=default;startArrow=block;startFill=1;strokeWidth=2.5;" edge="1" parent="1" source="_v1DKOq9-sfsuuMIZ3_m-46">
          <mxGeometry width="50" height="50" relative="1" as="geometry">
            <mxPoint x="460" y="210" as="sourcePoint" />
            <mxPoint x="440" y="170" as="targetPoint" />
          </mxGeometry>
        </mxCell>
        <mxCell id="_v1DKOq9-sfsuuMIZ3_m-73" value="" style="endArrow=none;html=1;rounded=0;endFill=0;shape=wire;fillColor=default;startArrow=block;startFill=1;exitX=0.667;exitY=0.147;exitDx=0;exitDy=0;exitPerimeter=0;strokeWidth=2.5;dashed=1;" edge="1" parent="1" source="_v1DKOq9-sfsuuMIZ3_m-17">
          <mxGeometry width="50" height="50" relative="1" as="geometry">
            <mxPoint x="610" y="250" as="sourcePoint" />
            <mxPoint x="520" y="170" as="targetPoint" />
          </mxGeometry>
        </mxCell>
        <mxCell id="_v1DKOq9-sfsuuMIZ3_m-77" value="" style="endArrow=none;html=1;rounded=0;endFill=0;shape=wire;fillColor=default;startArrow=block;startFill=1;strokeWidth=2.5;dashed=1;" edge="1" parent="1">
          <mxGeometry width="50" height="50" relative="1" as="geometry">
            <mxPoint x="479.5" y="133" as="sourcePoint" />
            <mxPoint x="479.5" y="103" as="targetPoint" />
          </mxGeometry>
        </mxCell>
        <mxCell id="_v1DKOq9-sfsuuMIZ3_m-78" value="" style="endArrow=none;html=1;rounded=0;endFill=0;shape=wire;fillColor=default;startArrow=block;startFill=1;strokeWidth=2.5;dashed=1;exitX=0.449;exitY=0.324;exitDx=0;exitDy=0;exitPerimeter=0;" edge="1" parent="1" source="_v1DKOq9-sfsuuMIZ3_m-17">
          <mxGeometry width="50" height="50" relative="1" as="geometry">
            <mxPoint x="480" y="330" as="sourcePoint" />
            <mxPoint x="390" y="400" as="targetPoint" />
          </mxGeometry>
        </mxCell>
        <mxCell id="_v1DKOq9-sfsuuMIZ3_m-79" value="" style="endArrow=none;html=1;rounded=0;endFill=0;shape=wire;fillColor=default;startArrow=block;startFill=1;strokeWidth=2.5;dashed=1;entryX=0.628;entryY=0.529;entryDx=0;entryDy=0;entryPerimeter=0;exitX=0.564;exitY=0.324;exitDx=0;exitDy=0;exitPerimeter=0;" edge="1" parent="1" source="_v1DKOq9-sfsuuMIZ3_m-17" target="_v1DKOq9-sfsuuMIZ3_m-17">
          <mxGeometry width="50" height="50" relative="1" as="geometry">
            <mxPoint x="520" y="350" as="sourcePoint" />
            <mxPoint x="430" y="420" as="targetPoint" />
          </mxGeometry>
        </mxCell>
        <mxCell id="_v1DKOq9-sfsuuMIZ3_m-81" value="" style="endArrow=none;html=1;rounded=0;endFill=0;shape=wire;fillColor=default;startArrow=block;startFill=1;strokeWidth=2.5;dashed=1;" edge="1" parent="1">
          <mxGeometry width="50" height="50" relative="1" as="geometry">
            <mxPoint x="479.5" y="210" as="sourcePoint" />
            <mxPoint x="479.5" y="260" as="targetPoint" />
          </mxGeometry>
        </mxCell>
        <mxCell id="_v1DKOq9-sfsuuMIZ3_m-85" value="" style="rounded=0;whiteSpace=wrap;html=1;fillColor=none;strokeWidth=2.5;" vertex="1" parent="1">
          <mxGeometry x="40" y="20" width="880" height="580" as="geometry" />
        </mxCell>
      </root>
    </mxGraphModel>
  </diagram>
</mxfile>
